<?xml version="1.0" encoding="UTF-8" standalone="no"?>
<svg width="107px" height="83px" viewBox="0 0 107 83" version="1.1" xmlns="http://www.w3.org/2000/svg" xmlns:xlink="http://www.w3.org/1999/xlink" xmlns:sketch="http://www.bohemiancoding.com/sketch/ns">
    <!-- Generator: Sketch 3.4.4 (17249) - http://www.bohemiancoding.com/sketch -->
    <title>Imported Layers</title>
    <desc>Created with Sketch.</desc>
    <defs></defs>
    <g id="Web-/-Tablet-/-Mobile" stroke="none" stroke-width="1" fill="none" fill-rule="evenodd" sketch:type="MSPage">
        <g id="-Home-(1-1126)" sketch:type="MSArtboardGroup" transform="translate(-606.000000, -50.000000)" fill="#434E4E">
            <g id="Imported-Layers" sketch:type="MSLayerGroup" transform="translate(606.000000, 50.000000)">
                <path d="M93.019,9.344 C95.287,9.359 97.164,7.555 97.267,5.262 C97.375,2.843 95.541,0.904 93.108,0.868 C90.79,0.833 88.954,2.581 88.869,4.9 C88.782,7.303 90.673,9.329 93.019,9.344" id="Fill-1" sketch:type="MSShapeGroup"></path>
                <path d="M8.275,17.74 C10.694,17.673 12.584,15.665 12.442,13.312 C12.304,11.024 10.417,9.303 8.09,9.342 C5.644,9.383 3.828,11.33 3.969,13.761 C4.104,16.09 5.958,17.803 8.275,17.74" id="Fill-2" sketch:type="MSShapeGroup"></path>
                <path d="M104.454,18.393 C103.539,14.071 101.33,12.737 97.046,13.814 C81.516,17.719 65.846,20.929 50.095,23.786 C46.225,24.488 44.512,26.391 44.378,30.323 C44.16,36.668 43.645,43.06 45.666,49.272 C46.149,50.757 46.225,52.315 45.919,53.861 C45.313,56.923 42.816,58.445 39.807,57.615 C36.608,56.731 35.233,53.918 36.565,50.176 C38.11,45.836 39.226,41.482 38.891,36.831 C38.755,34.566 38.777,32.277 38.448,30.04 C37.862,26.047 36.013,24.046 31.995,23.928 C23.541,23.68 15.136,22.497 6.667,22.681 C2.2,22.778 0.299,24.738 0.097,29.27 C-0.042,32.375 0.288,35.456 0.683,38.517 C3.021,56.606 11.881,70.246 28.999,77.248 C48.067,85.048 67.167,83.526 85.584,74.765 C95.547,70.025 101.835,61.815 104.655,51.096 C107.525,40.188 106.753,29.258 104.454,18.393 L104.454,18.393 Z M33.648,51.548 C32.724,54.758 30.286,56.623 27.084,56.904 C23.299,57.235 19.467,57.058 15.656,57.067 C14.06,57.071 13.753,56.003 13.755,54.69 C13.76,50.784 13.756,47 13.756,43 L13.745,43 C13.745,39 13.817,35.344 13.717,31.532 C13.662,29.399 14.528,28.591 16.617,28.666 C19.52,28.77 22.433,28.596 25.333,28.726 C28.531,28.869 31.192,30.143 32.536,33.236 C33.83,36.215 33.241,38.941 30.899,41.203 C30.029,42.044 29.998,42.622 31.014,43.342 C33.926,45.406 34.579,48.312 33.648,51.548 L33.648,51.548 Z M58.921,57.668 C52.82,57.622 48.474,53.201 48.51,47.079 C48.546,40.971 52.964,36.645 59.116,36.693 C65.249,36.741 69.528,41.105 69.495,47.275 C69.461,53.397 65.069,57.714 58.921,57.668 L58.921,57.668 Z M92.975,48 L92.879,48 C92.879,51 93.066,53.457 92.836,56.165 C92.476,60.418 90.394,63.641 86.13,64.844 C81.775,66.073 77.601,65.624 74.291,62.13 C73.363,61.151 71.835,59.682 73.436,58.467 C74.769,57.455 76.615,56.378 78.454,58.517 C80.766,61.206 85.183,60.647 86.503,57.747 C86.846,56.991 87.211,56.098 86.676,55.412 C86.058,54.62 85.366,55.487 84.74,55.699 C81.068,56.944 77.149,56.052 74.796,53.217 C72.038,49.894 71.612,46.156 73.344,42.232 C74.892,38.728 78.305,36.707 82.098,36.886 C82.279,36.894 82.471,36.871 82.641,36.921 C84.975,37.606 87.166,38.3 89.76,37.35 C91.846,36.587 93.107,37.936 93,40.35 C92.887,42.891 92.975,45 92.975,48 L92.975,48 Z" id="Fill-3" sketch:type="MSShapeGroup"></path>
                <path d="M22.743,45.106 C19.972,44.982 19.693,46.509 19.705,48.699 C19.718,50.903 19.989,52.592 22.501,52.137 C25.993,52.132 27.779,50.938 27.839,48.772 C27.901,46.509 25.958,45.251 22.743,45.106" id="Fill-4" sketch:type="MSShapeGroup"></path>
                <path d="M22.404,40.156 C25.29,40.061 26.927,39.084 26.99,37.023 C27.053,34.943 25.449,33.726 22.329,33.687 C20.162,33.391 19.681,34.766 19.718,36.829 C19.752,38.725 19.83,40.24 22.404,40.156" id="Fill-5" sketch:type="MSShapeGroup"></path>
                <path d="M82.673,42.142 C80.262,42.161 78.413,44.027 78.353,46.503 C78.289,49.139 80.117,51.02 82.74,51.018 C85.338,51.017 86.902,49.416 86.942,46.718 C86.983,43.978 85.25,42.121 82.673,42.142" id="Fill-6" sketch:type="MSShapeGroup"></path>
                <path d="M59.083,42.265 C56.274,42.229 54.485,44.092 54.442,47.099 C54.4,50.033 56.224,52.09 58.923,52.155 C61.673,52.22 63.438,50.326 63.476,47.272 C63.514,44.145 61.896,42.301 59.083,42.265" id="Fill-7" sketch:type="MSShapeGroup"></path>
            </g>
        </g>
    </g>
</svg>