<?xml version="1.0" encoding="UTF-8" standalone="no"?>
<svg width="53px" height="41px" viewBox="0 0 53 41" version="1.1" xmlns="http://www.w3.org/2000/svg" xmlns:xlink="http://www.w3.org/1999/xlink" xmlns:sketch="http://www.bohemiancoding.com/sketch/ns">
    <!-- Generator: Sketch 3.4.4 (17249) - http://www.bohemiancoding.com/sketch -->
    <title>Logo</title>
    <desc>Created with Sketch.</desc>
    <defs></defs>
    <g id="Web-/-Tablet-/-Mobile" stroke="none" stroke-width="1" fill="none" fill-rule="evenodd" sketch:type="MSPage">
        <g id="-Home-(1-1126)" sketch:type="MSArtboardGroup" transform="translate(-70.000000, -131.000000)" fill="#FFFFFF">
            <g id="Casumo-(expanded)-Copy-3" sketch:type="MSLayerGroup" transform="translate(0.000000, 99.000000)">
                <g id="Logo" transform="translate(70.000000, 32.000000)" sketch:type="MSShapeGroup">
                    <path d="M45.9491446,4.61571084 C47.0694819,4.62312048 47.9966747,3.73198795 48.0475542,2.5993012 C48.1009036,1.40437349 47.1949518,0.446554217 45.9931084,0.428771084 C44.8480723,0.411481928 43.9411325,1.27495181 43.8991446,2.42048193 C43.8561687,3.60750602 44.7902771,4.6083012 45.9491446,4.61571084" id="Fill-1"></path>
                    <path d="M4.0876506,8.76313253 C5.28257831,8.73003614 6.21619277,7.73813253 6.14604819,6.57580723 C6.07787952,5.44559036 5.14574699,4.59545783 3.99626506,4.61472289 C2.788,4.6349759 1.89093976,5.59674699 1.96059036,6.79760241 C2.02727711,7.94807229 2.94310843,8.79425301 4.0876506,8.76313253" id="Fill-2"></path>
                    <path d="M51.597759,9.0856988 C51.1457711,6.95073494 50.0545783,6.29177108 47.9383855,6.82378313 C40.2669398,8.75275904 32.5263373,10.3384217 24.7457229,11.7497108 C22.8340361,12.0964819 21.9878554,13.0365181 21.9216627,14.9788313 C21.8139759,18.1131084 21.5595783,21.2706024 22.5579036,24.3391807 C22.796494,25.0727349 22.8340361,25.8423494 22.6828795,26.6060361 C22.3835301,28.1185904 21.1500723,28.8704217 19.6636988,28.4604217 C18.0834699,28.023747 17.404253,26.6341928 18.0622289,24.7857349 C18.8254217,22.6418795 19.3766988,20.4911084 19.2112169,18.1936265 C19.1440361,17.0747711 19.1549036,15.9440602 18.9923855,14.8390361 C18.7029157,12.8665904 17.7895542,11.8781446 15.804759,11.8198554 C11.6286867,11.6973494 7.47681928,11.1129759 3.29333735,11.2038675 C1.08674699,11.2517831 0.147698795,12.2199759 0.0479156627,14.4586747 C-0.020746988,15.9924699 0.14226506,17.5144096 0.337385542,19.0264699 C1.4923012,27.962 5.86892771,34.6998313 14.3248072,38.1586506 C23.7439398,42.0116627 33.1788795,41.2598313 42.2764337,36.9321084 C47.1979157,34.5906627 50.3040361,30.5351205 51.6970482,25.2401928 C53.114759,19.8519036 52.7334096,14.452747 51.597759,9.0856988 L51.597759,9.0856988 Z M16.6213012,25.4634699 C16.1648675,27.0491325 14.9605542,27.9703976 13.3788434,28.1092048 C11.5091446,28.2727108 9.61622892,28.1852771 7.73368675,28.1897229 C6.9453012,28.1916988 6.7936506,27.6641325 6.79463855,27.0155422 C6.79710843,25.0860723 6.79513253,23.2168675 6.79513253,21.2409639 L6.7896988,21.2409639 C6.7896988,19.2650602 6.82526506,17.4590843 6.77586747,15.5760482 C6.7486988,14.5223976 7.17648193,14.1232651 8.20839759,14.1603133 C9.64240964,14.2116867 11.0813614,14.1257349 12.5138916,14.1899518 C14.0936265,14.2605904 15.4080964,14.8899157 16.072,16.4177831 C16.7112048,17.8893373 16.420253,19.2359157 15.2633614,20.3532892 C14.8336024,20.7687229 14.8182892,21.054241 15.3201687,21.4099036 C16.7586265,22.4294699 17.0811928,23.8649639 16.6213012,25.4634699 L16.6213012,25.4634699 Z M29.1055542,28.4866024 C26.0918072,28.4638795 23.944988,26.280012 23.9627711,23.2558916 C23.9805542,20.2386867 26.1629398,18.101747 29.2018795,18.1254578 C32.2314337,18.1491687 34.3451566,20.3048795 34.3288554,23.3527108 C34.3120602,26.3768313 32.1425181,28.5093253 29.1055542,28.4866024 L29.1055542,28.4866024 Z M45.9274096,23.7108434 L45.879988,23.7108434 C45.879988,25.1927711 45.9723614,26.4064699 45.858747,27.7441566 C45.6809157,29.8450361 44.6524578,31.4371205 42.5461446,32.0313735 C40.3948795,32.6384699 38.3330241,32.4166747 36.6979639,30.6907229 C36.2395542,30.2071205 35.484759,29.4814699 36.2756145,28.8812892 C36.9340843,28.3813855 37.8459639,27.8493735 38.7543855,28.905988 C39.8964578,30.2342892 42.0783494,29.9581566 42.7303976,28.5256265 C42.8998313,28.1521807 43.0801325,27.7110602 42.8158554,27.3721928 C42.5105783,26.9809639 42.168747,27.409241 41.8595181,27.5139639 C40.0456386,28.1289639 38.109747,27.6883373 36.9474217,26.2879157 C35.5850361,24.6464337 35.3746024,22.7999518 36.2301687,20.8615904 C36.9948434,19.1306988 38.6807831,18.1323735 40.5544337,18.2207952 C40.6438434,18.224747 40.7386867,18.2133855 40.8226627,18.2380843 C41.9756024,18.5764578 43.0579036,18.9192771 44.3392771,18.45 C45.3697108,18.0730964 45.9926145,18.7394699 45.939759,19.9319277 C45.8839398,21.1871205 45.9274096,22.2289157 45.9274096,23.7108434 L45.9274096,23.7108434 Z" id="Fill-3"></path>
                    <path d="M11.234494,22.2812771 C9.86568675,22.2200241 9.72786747,22.9743253 9.73379518,24.0561325 C9.74021687,25.1448554 9.87408434,25.9791807 11.1149518,25.7544217 C12.8399157,25.7519518 13.7221566,25.1621446 13.7517952,24.0921928 C13.7824217,22.9743253 12.8226265,22.3529036 11.234494,22.2812771" id="Fill-4"></path>
                    <path d="M11.0670361,19.8360964 C12.4926506,19.7891687 13.3012892,19.3065542 13.3324096,18.2884699 C13.3635301,17.261 12.5711928,16.6598313 11.029988,16.6405663 C9.95954217,16.4943494 9.72193976,17.1735663 9.74021687,18.1926386 C9.75701205,19.1292169 9.79554217,19.8775904 11.0670361,19.8360964" id="Fill-5"></path>
                    <path d="M40.8384699,20.8171325 C39.647494,20.8265181 38.7341325,21.7482771 38.704494,22.9713614 C38.6728795,24.2734819 39.5758675,25.2026506 40.8715663,25.2016627 C42.1549157,25.2011687 42.927494,24.4103133 42.947253,23.0775663 C42.967506,21.7240723 42.1114458,20.806759 40.8384699,20.8171325" id="Fill-6"></path>
                    <path d="M29.1855783,20.8778916 C27.798,20.8601084 26.9142771,21.7803855 26.8930361,23.2657711 C26.8722892,24.7150964 27.7733012,25.7312048 29.1065422,25.7633133 C30.4649759,25.7954217 31.3368434,24.8598313 31.3556145,23.3512289 C31.3743855,21.8065663 30.5751325,20.8956747 29.1855783,20.8778916" id="Fill-7"></path>
                </g>
            </g>
        </g>
    </g>
</svg>