<?xml version="1.0" encoding="UTF-8" standalone="no"?>
<svg width="112px" height="27px" viewBox="0 0 112 27" version="1.1" xmlns="http://www.w3.org/2000/svg" xmlns:xlink="http://www.w3.org/1999/xlink" xmlns:sketch="http://www.bohemiancoding.com/sketch/ns">
    <!-- Generator: Sketch 3.4.4 (17249) - http://www.bohemiancoding.com/sketch -->
    <title>Casumo logo</title>
    <desc>Created with Sketch.</desc>
    <defs></defs>
    <g id="Web-/-Tablet-/-Mobile" stroke="none" stroke-width="1" fill="none" fill-rule="evenodd" sketch:type="MSPage">
        <g id="-Home-(1-1126)" sketch:type="MSArtboardGroup" transform="translate(-40.000000, -36.000000)" fill="#FFFFFF">
            <g id="CASUMO" sketch:type="MSLayerGroup">
                <path d="M78.9667125,56.69415 C78.9667125,57.687075 79.5971625,58.73805 81.6235125,58.73805 C82.9357125,58.73805 83.9637375,58.127175 83.9637375,57.026925 C83.9637375,55.543275 82.4517375,55.038375 80.9518875,54.195975 C79.4729625,53.364375 78.0048375,52.2054 78.0048375,49.45815 C78.0048375,46.263375 80.8965375,44.339625 84.9080625,44.33895 C86.5516875,44.339625 87.6883875,44.615025 88.9351125,45.408825 C89.7910125,43.552575 91.9159125,42.2316 94.3175625,42.2316 C98.0368125,42.2316 99.6655875,44.590725 99.6655875,46.545525 C99.6655875,49.308975 96.6746625,53.9766 96.6746625,56.4984 C96.6746625,57.072825 97.1309625,57.387375 97.5940125,57.38805 C100.329112,57.387375 103.279537,50.28165 103.433437,45.2394 C103.440187,44.851275 103.708837,44.52525 104.071312,44.43615 C104.320387,44.372025 104.634937,44.3376 105.001462,44.3376 C106.531012,44.3376 108.159112,45.17595 108.142237,47.375775 C108.111187,51.319125 105.340312,54.839925 105.340312,56.75625 C105.340312,57.253725 105.779737,57.788325 106.631587,57.788325 C109.496287,57.788325 111.709612,51.092325 111.709612,45.819225 C111.709612,45.273825 112.276612,44.841825 113.596913,44.841825 C115.335712,44.841825 116.540587,45.848925 116.435287,48.509775 C116.577712,48.29715 118.848412,44.339625 122.325337,44.339625 C124.599412,44.339625 125.556562,45.765225 125.556562,47.5884 C125.556562,47.5884 127.032112,44.339625 130.951837,44.339625 C133.222537,44.339625 134.464538,45.70785 134.465213,47.94345 C134.465213,51.456825 131.270438,55.277325 131.270438,57.01545 C131.270438,57.584475 131.663287,57.797775 132.123638,57.797775 C133.300838,57.797775 135.014662,56.7225 135.626213,55.062 C136.096688,53.7876 137.521613,50.11965 140.424113,50.11965 C141.419062,50.11965 141.650588,50.5341 141.650588,50.93775 C141.650588,51.795 140.737313,52.0461 140.737313,55.10385 C140.737313,57.406275 141.448762,58.403925 142.584113,58.403925 C144.171038,58.403925 146.580787,55.077525 146.580787,50.941125 C146.580787,49.1679 145.570988,47.495925 143.027588,47.495925 C141.134887,47.495925 140.658338,48.0771 139.892212,48.0771 C139.641113,48.0771 139.120012,47.90295 139.120012,47.30625 C139.120012,46.117575 142.083937,44.339625 145.457587,44.339625 C150.388463,44.339625 151.741838,48.6819 151.741838,51.170625 C151.741838,57.507525 146.402587,62.5437 141.790313,62.5437 C138.836512,62.5437 137.302237,61.143075 136.511138,59.58315 C135.134813,61.066125 132.664312,62.5437 129.873188,62.5437 C127.318988,62.5437 125.863012,61.380675 125.863012,59.0742 C125.863012,56.12715 128.929538,51.42105 128.929538,50.00085 C128.929538,49.646475 128.857988,49.46895 128.538713,49.46895 C125.870437,49.46895 122.426587,56.547675 121.907512,61.172775 C121.883212,61.390125 121.677337,62.5437 120.267937,62.5437 C118.670887,62.5437 117.112987,61.5582 117.112987,59.392125 C117.112987,56.411325 120.304388,51.385275 120.303712,50.000175 C120.304388,49.681575 120.197062,49.46895 119.843362,49.46895 C118.283437,49.46895 116.562862,51.95835 115.305337,54.9486 C114.442687,56.999925 113.804137,59.286825 113.573962,61.168725 C113.528062,61.54605 113.236462,62.5437 111.928312,62.5437 C110.329237,62.5437 109.391662,61.67565 108.923212,60.586875 C107.758162,61.591275 106.314337,62.5437 104.732812,62.5437 C101.822212,62.5437 100.776637,61.1586 100.668637,59.667525 C100.668637,59.667525 99.0796875,62.5437 95.2456875,62.5437 C93.3705375,62.5437 91.5615375,60.999975 91.5615375,57.735 C91.5615375,54.06705 93.6675375,51.34275 94.4512125,48.0096 C94.6874625,46.889775 93.7721625,46.2492 92.7461625,46.2492 C91.4326125,46.2492 90.7846125,47.162475 90.7846125,48.643425 C90.7846125,50.232375 89.8949625,51.494625 87.7909875,51.494625 C87.4393125,51.494625 87.0208125,51.2253 87.0208125,50.723775 C87.0208125,50.518575 87.0876375,50.306625 87.0876375,49.777425 C87.0876375,48.463875 86.0251875,47.717325 84.7089375,47.717325 C83.5033875,47.717325 82.9357125,48.322125 82.9357125,49.2462 C82.9357125,50.822325 84.5557125,51.36435 86.1419625,52.1541 C87.6647625,52.91145 89.1558375,53.896275 89.1558375,56.2365 C89.1558375,60.281775 85.6120875,62.5437 81.2110875,62.5437 C78.9694125,62.5437 77.3345625,62.0496 76.3990125,60.963525 C75.5593125,61.74585 74.2450875,62.5437 72.3625125,62.5437 C69.1326375,62.5437 69.0178875,59.743125 69.0178875,59.743125 C69.0178875,59.743125 67.4977875,62.5437 62.9192625,62.5437 C59.1689625,62.5437 58.3677375,59.578425 58.3677375,59.578425 C56.4952875,61.245 53.6818875,62.5437 49.8242625,62.5437 C43.5163875,62.5437 40.2581625,58.6719 40.2581625,52.7265 C40.2581625,46.380825 45.7351125,36 54.3143625,36 C58.9171875,36 61.2776625,38.714175 61.2776625,41.746275 C61.2776625,44.5347 59.0920125,47.583 55.4422875,47.583 C53.5090875,47.583 52.9805625,46.9188 52.9805625,46.4544 C52.9805625,45.5769 55.1857875,45.034875 55.1857875,42.5664 C55.1857875,41.28255 54.3744375,40.36725 53.2438125,40.36725 C50.0875125,40.36725 45.8755125,46.7352 45.8755125,51.876675 C45.8755125,56.03805 47.7722625,58.262175 51.4442625,58.262175 C53.6562375,58.262175 56.7760875,56.628675 57.5719125,54.283725 C58.7848875,50.70825 61.6603875,44.3376 69.5767875,44.3376 C73.5444375,44.3376 74.9302125,46.579275 74.9302125,47.60055 C74.9302125,47.883375 74.7142125,48.370725 74.1593625,48.370725 C73.6092375,48.370725 72.8201625,47.693025 70.4846625,47.693025 C65.1008625,47.693025 62.7532125,52.07175 62.7532125,55.2402 C62.7532125,57.09645 63.4315875,57.989475 64.5561375,57.989475 C66.8389875,57.989475 67.1812125,55.95975 68.0911125,53.01 C68.5953375,51.378525 69.7705125,50.120325 71.6362125,50.120325 C73.4850375,50.120325 73.4722125,50.937075 73.4701875,51.068025 C73.4681625,51.2874 73.3777125,51.572925 73.1563125,52.01775 C72.5022375,53.340075 72.2025375,55.169325 72.2025375,55.98405 C72.2025375,56.766375 72.5096625,57.96855 73.8974625,57.96855 C75.7834125,57.96855 75.8117625,54.814275 78.4132125,54.814275 C78.9484875,54.814275 79.1847375,55.258425 79.1847375,55.585125 C79.1847375,55.940175 78.9667125,56.033325 78.9667125,56.69415 Z" id="Casumo-logo" sketch:type="MSShapeGroup"></path>
            </g>
        </g>
    </g>
</svg>