<?xml version="1.0" encoding="UTF-8" standalone="no"?>
<svg width="90px" height="22px" viewBox="0 0 90 22" version="1.1" xmlns="http://www.w3.org/2000/svg" xmlns:xlink="http://www.w3.org/1999/xlink" xmlns:sketch="http://www.bohemiancoding.com/sketch/ns">
    <!-- Generator: Sketch 3.4.4 (17249) - http://www.bohemiancoding.com/sketch -->
    <title>Group</title>
    <desc>Created with Sketch.</desc>
    <defs>
        <path d="M0.20884808,10.5145622 L0.158664441,10.5145622 L0.0169782972,11.8221883 C0.0854924875,11.6634695 0.124557596,11.4887957 0.127111853,11.3053812 L0.20884808,10.5145622 L0.20884808,10.5145622 Z M1.28539232,0.109882212 L0.913672788,3.54273014 L0.930200334,3.54273014 L1.28539232,0.109882212 L1.28539232,0.109882212 Z" id="path-1"></path>
    </defs>
    <g id="Web-/-Tablet-/-Mobile" stroke="none" stroke-width="1" fill="none" fill-rule="evenodd" sketch:type="MSPage">
        <g id="-Home-(1-1126)" sketch:type="MSArtboardGroup" transform="translate(-51.000000, -654.000000)">
            <g id="Miami" sketch:type="MSLayerGroup" transform="translate(0.000000, 615.000000)">
                <g id="Group" transform="translate(51.000000, 39.000000)">
                    <path d="M69.4461937,11.5454017 L66.9669115,11.5454017 C66.2711018,11.5454017 65.8123873,10.9665777 65.6807679,10.4290983 L65.6780634,10.4174441 L65.0017863,7.16731698 L64.6876127,5.82292477 C64.5726711,5.49771782 64.1806678,5.33594679 64.069783,5.3287323 L63.5294825,5.32887104 C63.27,5.32887104 63.0588982,5.52393971 63.0588982,5.76354398 L63.0588982,6.57836497 C63.0588982,6.77939948 62.8823539,6.94255791 62.6644908,6.94255791 C62.446778,6.94255791 62.2700835,6.77939948 62.2700835,6.57836497 L62.2700835,5.76354398 C62.2700835,5.12214819 62.8351753,4.60048517 63.5294825,4.60048517 L64.0735392,4.60048517 C64.4976962,4.60048517 65.2307679,4.96523306 65.446828,5.62452633 L65.4549416,5.65310681 L65.7746745,7.02177855 L66.4514023,10.2734318 C66.5074457,10.4945836 66.7080301,10.816877 66.9669115,10.816877 L69.4461937,10.816877 C69.5300334,10.816877 69.7838063,10.816877 69.9639566,10.2624713 L70.6364775,7.02982548 C70.6774958,6.83225948 70.8843907,6.70267616 71.098197,6.74082971 C71.3121536,6.77884451 71.4523372,6.96975098 71.4111686,7.16731698 L70.7350417,10.4174441 L70.726177,10.4507418 C70.4399499,11.3554664 69.8721536,11.5454017 69.4461937,11.5454017" id="Fill-74" fill="#A85AA6" sketch:type="MSShapeGroup"></path>
                    <path d="M52.2452254,1.46190513 C52.2202838,1.23187393 52.094975,1.0320881 51.9124207,0.896538953 L51.9194825,0.886133441 L51.3043573,0.318131201 L51.1432888,0.712292013 L39.4572621,0.712292013 C38.9941903,0.712292013 38.606394,1.0362503 38.5602671,1.46190513 L35.9338898,20.5109299 L35.3946411,20.5485285 L36.1434891,21.2400095 C36.3080134,21.4128798 36.5487145,21.5234557 36.8203673,21.5234557 L41.769616,21.5234557 C42.2328381,21.5234557 42.6206344,21.1993586 42.666611,20.7738425 L42.8446578,19.1301878 L47.9608347,19.1301878 L48.1106344,20.5145372 L47.6221703,20.5485285 L48.3094157,21.183126 C48.4742404,21.3904038 48.7394324,21.5234557 49.0357262,21.5234557 L53.9851252,21.5234557 C54.5185142,21.5234557 54.9353088,21.0982171 54.8821202,20.6081868 L52.2452254,1.46190513 M43.5996661,12.1584945 L44.1631052,6.95559949 L46.6422371,6.95559949 L47.2058264,12.1584945 L43.5996661,12.1584945" id="Fill-1" fill="#503254" sketch:type="MSShapeGroup"></path>
                    <path d="M89.5279132,0.861715172 L88.9392321,0.318131201 L88.7781636,0.712292013 L84.0550417,0.712292013 C83.5571119,0.712292013 83.1535392,1.0849481 83.1535392,1.54473301 L83.1535392,20.5119011 L82.6273623,20.5485285 L83.4019032,21.2637341 L83.434808,21.2941182 L83.4501336,21.3084084 L83.4514858,21.3081309 C83.6113523,21.441599 83.8226043,21.5234557 84.0550417,21.5234557 L89.0133055,21.5234557 C89.5112354,21.5234557 89.914808,21.1507996 89.914808,20.6910147 L89.914808,1.54473301 C89.914808,1.26170307 89.7615526,1.01210951 89.5279132,0.861715172" id="Fill-2" fill="#503254" sketch:type="MSShapeGroup"></path>
                    <path d="M79.3676795,0.888630764 L79.3693322,0.886133441 L78.7543573,0.318131201 L78.5931386,0.712292013 L70.3374791,0.712292013 C69.8967947,0.712292013 69.5205676,1.00642116 69.4481469,1.40779647 L69.0103172,3.83394575 L68.5723372,1.40779647 C68.5412354,1.23492622 68.4534891,1.0821733 68.3287813,0.963966674 L68.3287813,0.963827934 L68.326227,0.961469351 L67.5542404,0.248483637 L67.408798,0.712292013 L59.2063272,0.712292013 C58.7085476,0.712292013 58.304975,1.0849481 58.304975,1.54473301 L58.304975,20.5116236 L57.776394,20.5485285 L58.5991653,21.3084084 L58.602621,21.3078534 C58.7624875,21.4414602 58.9737396,21.5234557 59.2063272,21.5234557 L64.1647412,21.5234557 C64.6625209,21.5234557 65.0662437,21.1507996 65.0662437,20.6910147 L65.0662437,6.95573823 L66.0207846,12.2446521 L65.593172,12.2744812 L66.245409,12.8767523 C66.2915359,12.9314159 66.3447245,12.9805299 66.4039232,13.0229844 L66.4160935,13.0343611 L66.4190985,13.0339449 C66.5702504,13.1377225 66.7565609,13.1990457 66.9568447,13.1990457 L71.0637896,13.1990457 C71.5044741,13.1990457 71.8807012,12.9047778 71.9531219,12.5034025 L72.9543907,6.95546075 L72.9543907,20.5119011 L72.4292654,20.5485285 L73.1925376,21.2533286 C73.2099666,21.2708098 73.2279967,21.2874586 73.2469282,21.3035525 L73.252187,21.3084084 L73.2526377,21.3082697 C73.4125042,21.441599 73.623606,21.5234557 73.8558932,21.5234557 L78.8143072,21.5234557 C79.3120868,21.5234557 79.7158097,21.1507996 79.7158097,20.6910147 L79.7158097,1.54473301 C79.7158097,1.27779693 79.5792321,1.04096747 79.3676795,0.888630764" id="Fill-3" fill="#503254" sketch:type="MSShapeGroup"></path>
                    <path d="M32.04,0.861715172 L31.4513189,0.318131201 L31.2902504,0.712292013 L26.5669783,0.712292013 C26.0690484,0.712292013 25.6654758,1.0849481 25.6654758,1.54473301 L25.6654758,20.5119011 L25.1392988,20.5485285 L25.9467446,21.2941182 L25.9622204,21.3084084 L25.9635726,21.3081309 C26.1234391,21.441599 26.3345409,21.5234557 26.5669783,21.5234557 L31.5253923,21.5234557 C32.023172,21.5234557 32.4268948,21.1507996 32.4268948,20.6910147 L32.4268948,1.54473301 C32.4268948,1.26170307 32.2736394,1.01210951 32.04,0.861715172" id="Fill-4" fill="#503254" sketch:type="MSShapeGroup"></path>
                    <path d="M21.8797663,0.888630764 L21.881419,0.886133441 L21.2662938,0.318131201 L21.1052254,0.712292013 L12.8494157,0.712292013 C12.4087312,0.712292013 12.0326544,1.00642116 11.9602337,1.40779647 L11.5222538,3.83394575 L11.084424,1.40779647 C11.053172,1.23492622 10.9654257,1.0821733 10.8407179,0.963966674 L10.8408681,0.963827934 L10.8381636,0.961469351 L10.066177,0.248483637 L9.92073456,0.712292013 L1.71841402,0.712292013 C1.22048414,0.712292013 0.816911519,1.0849481 0.816911519,1.54473301 L0.816911519,20.5116236 L0.288330551,20.5485285 L1.11125209,21.3084084 L1.1145576,21.3078534 C1.27457429,21.4414602 1.48582638,21.5234557 1.71841402,21.5234557 L6.6766778,21.5234557 C7.17460768,21.5234557 7.5781803,21.1507996 7.5781803,20.6910147 L7.5781803,6.95559949 L8.53287145,12.2446521 L8.10525876,12.2744812 L8.75734558,12.8767523 C8.80347245,12.9315547 8.85681135,12.9806687 8.91585977,13.0231232 L8.9281803,13.0343611 L8.93103506,13.0339449 C9.08218698,13.1377225 9.26864775,13.1990457 9.4687813,13.1990457 L13.5758765,13.1990457 C14.0165609,13.1990457 14.3926377,12.9047778 14.4650584,12.5034025 L15.4664775,6.95573823 L15.4664775,20.5119011 L14.9413523,20.5485285 L15.7046244,21.2533286 C15.7219032,21.2708098 15.7400835,21.2874586 15.7588648,21.3035525 L15.7641235,21.3084084 L15.7645743,21.3082697 C15.9244407,21.441599 16.1355426,21.5234557 16.36798,21.5234557 L21.3262437,21.5234557 C21.8241736,21.5234557 22.2277462,21.1507996 22.2277462,20.6910147 L22.2277462,1.54473301 C22.2277462,1.27779693 22.0911686,1.04096747 21.8797663,0.888630764" id="Fill-5" fill="#503254" sketch:type="MSShapeGroup"></path>
                    <path d="M38.4385643,6.24802464 L39.0021536,0.00471716565 L49.1440568,0.00471716565 L49.7074958,6.24802464 L38.4385643,6.24802464" id="Fill-6" fill="#603B63" sketch:type="MSShapeGroup"></path>
                    <path d="M38.4387145,11.4509196 L51.9614023,11.4509196 L51.9614023,18.4227517 L38.4387145,18.4227517 L38.4387145,11.4509196 Z" id="Fill-7" fill="#603B63" sketch:type="MSShapeGroup"></path>
                    <path d="M41.0034891,20.8158808 L36.0540902,20.8158808 C35.5208514,20.8158808 35.1040568,20.3907809 35.1570952,19.9006119 L37.7941402,0.754330283 C37.8401169,0.328814194 38.2279132,0.00471716565 38.6911352,0.00471716565 L43.0769449,0.00471716565 C43.6103339,0.00471716565 44.0269783,0.429955775 43.9739399,0.919986041 L41.9004841,20.0662677 C41.8543573,20.4919225 41.4665609,20.8158808 41.0034891,20.8158808" id="Fill-8" fill="#603B63" sketch:type="MSShapeGroup"></path>
                    <path d="M53.2188481,20.8158808 L48.2695993,20.8158808 C47.8063773,20.8158808 47.418581,20.4919225 47.3726043,20.0662677 L45.2991486,0.919986041 C45.2461102,0.429955775 45.6627546,0.00471716565 46.1961436,0.00471716565 L50.5819533,0.00471716565 C51.0451753,0.00471716565 51.4328214,0.328814194 51.4789482,0.754330283 L54.1159933,19.9006119 C54.1690317,20.3907809 53.7522371,20.8158808 53.2188481,20.8158808" id="Fill-9" fill="#603B63" sketch:type="MSShapeGroup"></path>
                    <path d="M88.2470284,20.8158808 L83.2887646,20.8158808 C82.7908347,20.8158808 82.3872621,20.4432247 82.3872621,19.9835786 L82.3872621,0.837158162 C82.3872621,0.377373252 82.7908347,0.00471716565 83.2887646,0.00471716565 L88.2470284,0.00471716565 C88.7449583,0.00471716565 89.1486811,0.377373252 89.1486811,0.837158162 L89.1486811,19.9835786 C89.1486811,20.4432247 88.7449583,20.8158808 88.2470284,20.8158808" id="Fill-10" fill="#603B63" sketch:type="MSShapeGroup"></path>
                    <path d="M63.3984641,20.8158808 L58.4402003,20.8158808 C57.9422705,20.8158808 57.5386978,20.4432247 57.5386978,19.9835786 L57.5386978,0.837158162 C57.5386978,0.377373252 57.9422705,0.00471716565 58.4402003,0.00471716565 L63.3984641,0.00471716565 C63.896394,0.00471716565 64.2999666,0.377373252 64.2999666,0.837158162 L64.2999666,19.9835786 C64.2999666,20.4432247 63.896394,20.8158808 63.3984641,20.8158808" id="Fill-11" fill="#603B63" sketch:type="MSShapeGroup"></path>
                    <path d="M68.8702838,12.4914709 L66.1905676,12.4914709 C65.7498831,12.4914709 65.3738063,12.1973417 65.3013856,11.7958277 L63.3481302,0.974094706 C63.2564775,0.466583179 62.6159599,0.00471716565 63.1730885,0.00471716565 L66.9168781,0.00471716565 C67.3577129,0.00471716565 67.7337896,0.298985058 67.8062104,0.700360358 L69.7594658,11.5222321 C69.8511185,12.0296048 69.4272621,12.4914709 68.8702838,12.4914709" id="Fill-12" fill="#603B63" sketch:type="MSShapeGroup"></path>
                    <path d="M67.6179466,12.4914709 L70.2976628,12.4914709 C70.7383472,12.4914709 71.114424,12.1973417 71.1868447,11.7958277 L73.1401002,0.974094706 C73.2317529,0.466583179 74.9991486,0.00471716565 74.44202,0.00471716565 L69.571202,0.00471716565 C69.1305175,0.00471716565 68.7544407,0.298985058 68.68202,0.700360358 L66.7287646,11.5222321 C66.6371119,12.0296048 67.060818,12.4914709 67.6179466,12.4914709" id="Fill-13" fill="#603B63" sketch:type="MSShapeGroup"></path>
                    <path d="M78.0480301,20.8158808 L73.0897663,20.8158808 C72.5918364,20.8158808 72.1882638,20.4432247 72.1882638,19.9835786 L72.1882638,0.837158162 C72.1882638,0.377373252 72.5918364,0.00471716565 73.0897663,0.00471716565 L78.0480301,0.00471716565 C78.5459599,0.00471716565 78.9495326,0.377373252 78.9495326,0.837158162 L78.9495326,19.9835786 C78.9495326,20.4432247 78.5459599,20.8158808 78.0480301,20.8158808" id="Fill-14" fill="#603B63" sketch:type="MSShapeGroup"></path>
                    <path d="M30.7591152,20.8158808 L25.8008514,20.8158808 C25.3029215,20.8158808 24.8993489,20.4432247 24.8993489,19.9835786 L24.8993489,0.837158162 C24.8993489,0.377373252 25.3029215,0.00471716565 25.8008514,0.00471716565 L30.7591152,0.00471716565 C31.2570451,0.00471716565 31.6606177,0.377373252 31.6606177,0.837158162 L31.6606177,19.9835786 C31.6606177,20.4432247 31.2570451,20.8158808 30.7591152,20.8158808" id="Fill-15" fill="#603B63" sketch:type="MSShapeGroup"></path>
                    <path d="M5.91055092,20.8158808 L0.952136895,20.8158808 C0.454207012,20.8158808 0.0506343907,20.4432247 0.0506343907,19.9835786 L0.0506343907,0.837158162 C0.0506343907,0.377373252 0.454207012,0.00471716565 0.952136895,0.00471716565 L5.91055092,0.00471716565 C6.40833055,0.00471716565 6.81205342,0.377373252 6.81205342,0.837158162 L6.81205342,19.9835786 C6.81205342,20.4432247 6.40833055,20.8158808 5.91055092,20.8158808" id="Fill-16" fill="#603B63" sketch:type="MSShapeGroup"></path>
                    <path d="M11.3822204,12.4914709 L8.70250417,12.4914709 C8.26196995,12.4914709 7.8857429,12.1973417 7.8133222,11.7958277 L5.86006678,0.974094706 C5.76856427,0.466583179 5.12804674,0.00471716565 5.68517529,0.00471716565 L9.42896494,0.00471716565 C9.86964942,0.00471716565 10.2457262,0.298985058 10.3181469,0.700360358 L12.2715526,11.5222321 C12.3630551,12.0296048 11.9393489,12.4914709 11.3822204,12.4914709" id="Fill-17" fill="#603B63" sketch:type="MSShapeGroup"></path>
                    <path d="M10.1300334,12.4914709 L12.8095993,12.4914709 C13.2502838,12.4914709 13.6263606,12.1973417 13.6989316,11.7958277 L15.652187,0.974094706 C15.7436895,0.466583179 17.5110851,0.00471716565 16.9539566,0.00471716565 L12.0832888,0.00471716565 C11.6426043,0.00471716565 11.2663773,0.298985058 11.1939566,0.700360358 L9.24070117,11.5222321 C9.14919866,12.0296048 9.57290484,12.4914709 10.1300334,12.4914709" id="Fill-18" fill="#603B63" sketch:type="MSShapeGroup"></path>
                    <path d="M20.5601169,20.8158808 L15.6017028,20.8158808 C15.1039232,20.8158808 14.7002003,20.4432247 14.7002003,19.9835786 L14.7002003,0.837158162 C14.7002003,0.377373252 15.1039232,0.00471716565 15.6017028,0.00471716565 L20.5601169,0.00471716565 C21.0578965,0.00471716565 21.4616194,0.377373252 21.4616194,0.837158162 L21.4616194,19.9835786 C21.4616194,20.4432247 21.0578965,20.8158808 20.5601169,20.8158808" id="Fill-19" fill="#603B63" sketch:type="MSShapeGroup"></path>
                    <g id="Group-22" transform="translate(41.919866, 7.908189)">
                        <mask id="mask-2" sketch:name="Clip 21" fill="white">
                            <use xlink:href="#path-1"></use>
                        </mask>
                        <g id="Clip-21"></g>
                        <path d="M0.0169782972,0.109882212 L1.28539232,0.109882212 L1.28539232,11.8221883 L0.0169782972,11.8221883 L0.0169782972,0.109882212 Z" id="Fill-20" fill="#3E3545" sketch:type="MSShapeGroup" mask="url(#mask-2)"></path>
                    </g>
                    <path d="M45.7070785,4.68719777 L44.4676628,4.68719777 C44.0938397,4.68719777 43.7910851,4.75420927 43.5470785,4.8617329 L43.4189149,6.04463156 C43.4916361,5.78990461 43.724975,5.41572238 44.4676628,5.41572238 L45.7859599,5.41572238 L45.7070785,4.68719777 M45.3948581,1.80362216 L43.8782304,1.80362216 L43.7993489,2.53200803 L45.4735893,2.53200803 L45.4735893,2.53186929 C45.260985,2.52645842 45.0903005,2.36551983 45.0903005,2.1678151 C45.0903005,1.99494485 45.2207179,1.85010011 45.3957596,1.81291775 L45.3948581,1.80362216" id="Fill-23" fill="#46394B" sketch:type="MSShapeGroup"></path>
                    <path d="M42.8500668,11.4509196 L42.8335392,11.4509196 L42.0785309,18.4227517 L42.1287145,18.4227517 L42.8500668,11.4509196" id="Fill-24" fill="#46394B" sketch:type="MSShapeGroup"></path>
                    <path d="M43.8782304,1.80362216 L41.3377963,1.80362216 C40.6186978,1.80362216 40.0322705,2.39049306 40.0190484,3.11735279 L37.7681469,19.1480853 C37.7658932,19.1636242 37.7648414,19.1793018 37.7648414,19.1949795 C37.7648414,19.9332159 38.3563773,20.5338221 39.0837396,20.5338221 L40.7280801,20.5338221 C41.2679299,20.5338221 41.7329549,20.202788 41.9368447,19.7303778 L43.2052588,8.01807168 L43.384808,6.28270968 L43.386611,6.2513544 C43.3873623,6.21417204 43.392621,6.13730999 43.4189149,6.04463156 L43.5470785,4.8617329 C42.8045409,5.18888221 42.6054591,5.89187863 42.5979466,6.22860102 L41.2599666,19.1602944 L41.2581636,19.1949795 C41.2581636,19.5315631 41.0203172,19.8054362 40.7280801,19.8054362 L39.0837396,19.8054362 C38.7976628,19.8054362 38.5635726,19.5429398 38.5539566,19.2162067 L40.8042571,3.1892202 C40.8065109,3.1736813 40.8077129,3.15800366 40.8077129,3.14232602 C40.8077129,2.80588112 41.045409,2.53200803 41.3377963,2.53200803 L43.7993489,2.53200803 L43.8782304,1.80362216" id="Fill-25" fill="#46394B" sketch:type="MSShapeGroup"></path>
                    <path d="M46.7776127,4.68719777 L45.7070785,4.68719777 L45.7859599,5.41572238 L46.7776127,5.41572238 L46.7789649,5.41572238 C46.5620033,5.41502868 46.3860601,5.25214773 46.3860601,5.05152945 C46.3860601,4.85077243 46.5620033,4.68803021 46.7789649,4.68719777 L46.7776127,4.68719777 M45.4735893,2.53186929 L45.4735893,2.53203293 L45.7634224,2.53203293 L45.4847078,2.53203293 C45.4809516,2.53203293 45.4773456,2.53186929 45.4735893,2.53186929 M45.5008238,1.80362216 L45.3948581,1.80362216 L45.3959213,1.8145858 C45.4295893,1.8073858 45.464675,1.80362216 45.5008238,1.80362216" id="Fill-26" fill="#46394B" sketch:type="MSShapeGroup"></path>
                    <path id="Fill-27" fill="#3E3545" sketch:type="MSShapeGroup"></path>
                    <path d="M87.829783,1.80362216 L85.9600668,1.80362216 C85.2327045,1.80362216 84.6411686,2.40422834 84.6411686,3.14232602 L84.6411686,19.1949795 C84.6411686,19.9332159 85.2327045,20.5338221 85.9600668,20.5338221 L87.829783,20.5338221 C88.552187,20.5338221 89.1407179,19.9412628 89.1486811,19.2098247 L89.1486811,12.231333 C89.1443239,12.0336283 88.9694324,11.8744933 88.7542738,11.8744933 C88.5365609,11.8744933 88.3598664,12.0376518 88.3598664,12.238825 L88.3598664,19.1949795 C88.3598664,19.5315631 88.1221703,19.8054362 87.829783,19.8054362 L85.9600668,19.8054362 C85.6678297,19.8054362 85.4299833,19.5315631 85.4299833,19.1949795 L85.4299833,3.14232602 C85.4299833,2.80588112 85.6678297,2.53200803 85.9600668,2.53200803 L87.829783,2.53200803 C88.1221703,2.53200803 88.3598664,2.80588112 88.3598664,3.14232602 L88.3598664,9.10288104 C88.3598664,9.30391554 88.5365609,9.46707397 88.7542738,9.46707397 C88.9694324,9.46707397 89.1443239,9.307939 89.1486811,9.11023427 L89.1486811,3.12761956 C89.1407179,2.39618141 88.552187,1.80362216 87.829783,1.80362216" id="Fill-28" fill="#46394B" sketch:type="MSShapeGroup"></path>
                    <path d="M78.9495326,3.12761956 L78.9495326,19.2098247 C78.9495326,19.20483 78.9497098,19.1999741 78.9497098,19.1949795 L78.9497098,3.14232602 C78.9497098,3.13747012 78.9495326,3.13247547 78.9495326,3.12761956 M68.2303673,3.05006381 L68.2464925,3.14022745 L68.2487961,3.12746381 L68.2347973,3.06790017 C68.2335569,3.06184563 68.2319621,3.05595472 68.2303673,3.05006381" id="Fill-29" fill="#3E3545" sketch:type="MSShapeGroup"></path>
                    <path d="M63.4977796,1.80362216 L60.9973122,1.80362216 C60.2699499,1.80362216 59.678414,2.40422834 59.678414,3.14232602 L59.678414,19.1949795 C59.678414,19.9332159 60.2699499,20.5338221 60.9973122,20.5338221 L62.8670284,20.5338221 C63.5943907,20.5338221 64.1859265,19.9332159 64.1859265,19.1949795 L64.1859265,7.30675085 C64.1859265,7.50792409 64.0093823,7.67094378 63.7915192,7.67094378 C63.5738063,7.67094378 63.3971119,7.50792409 63.3971119,7.30675085 L63.3971119,6.57420277 L63.3971119,19.1949795 C63.3971119,19.5315631 63.1592654,19.8054362 62.8670284,19.8054362 L60.9973122,19.8054362 C60.7050751,19.8054362 60.4672287,19.5315631 60.4672287,19.1949795 L60.4672287,3.14232602 C60.4672287,2.80588112 60.7050751,2.53200803 60.9973122,2.53200803 L63.6292487,2.53200803 L63.4977796,1.80362216" id="Fill-30" fill="#46394B" sketch:type="MSShapeGroup"></path>
                    <path d="M66.9242404,1.80362216 L63.4977796,1.80362216 L63.6292487,2.53200803 L66.9242404,2.53200803 C67.1159599,2.53200803 67.1963439,2.53200803 67.4685977,3.2420802 L67.8954591,5.05777275 L68.2440401,3.12650964 L68.2303673,3.05006381 C68.2275125,3.04049074 68.2243573,3.03091767 68.2209015,3.02148334 C67.9926711,2.42268078 67.7566277,1.80362216 66.9242404,1.80362216" id="Fill-31" fill="#46394B" sketch:type="MSShapeGroup"></path>
                    <path d="M72.1882638,1.80362216 L71.7037062,1.80362216 C70.8716194,1.80362216 70.635576,2.42268078 70.4071953,3.02148334 C70.4017863,3.03563483 70.397429,3.05034129 70.3939733,3.06518649 L69.5041903,6.8489083 C69.4168948,6.99264311 69.3530384,7.03967603 69.3311018,7.0527176 C69.2786644,7.03176784 69.1852087,6.93742452 69.1228548,6.84460735 L68.2459933,3.11568791 L67.8954591,5.05777275 L68.3648414,7.05382752 C68.3722037,7.08559902 68.384374,7.1162606 68.4007513,7.14525729 C68.4610017,7.25194848 68.7894491,7.78387828 69.3350083,7.78387828 C69.6874958,7.78387828 69.9876962,7.5691085 70.2273456,7.14525729 C70.2435726,7.1162606 70.2557429,7.08559902 70.2631052,7.05382752 L71.1594992,3.24194146 C71.4316027,2.53200803 71.5121369,2.53200803 71.7037062,2.53200803 L72.1882638,2.53200803 L72.1882638,1.80362216" id="Fill-32" fill="#46394B" sketch:type="MSShapeGroup"></path>
                    <path d="M77.6307846,1.80362216 L72.1882638,1.80362216 L72.1882638,2.53200803 L77.6307846,2.53200803 C77.9230217,2.53200803 78.1608681,2.80588112 78.1608681,3.14232602 L78.1608681,19.1949795 C78.1608681,19.5315631 77.9230217,19.8054362 77.6307846,19.8054362 L75.7609182,19.8054362 C75.4686811,19.8054362 75.2308347,19.5315631 75.2308347,19.1949795 L75.2308347,9.69613399 C75.2308347,9.49509949 75.0542905,9.33194105 74.8364274,9.33194105 C74.6187145,9.33194105 74.44202,9.49509949 74.44202,9.69613399 L74.44202,19.1949795 C74.44202,19.9332159 75.0337062,20.5338221 75.7609182,20.5338221 L77.6307846,20.5338221 C78.3531886,20.5338221 78.9417195,19.9412628 78.9495326,19.2098247 L78.9495326,3.12761956 C78.9417195,2.39618141 78.3531886,1.80362216 77.6307846,1.80362216" id="Fill-33" fill="#46394B" sketch:type="MSShapeGroup"></path>
                    <path d="M71.8590651,8.0720416 L71.1868447,11.7958277 C71.1579967,11.9556563 71.0810684,12.0982812 70.9712354,12.2123256 C71.3061436,12.1023047 71.6503673,11.8201072 71.8532053,11.1791276 L71.8619199,11.14583 L72.1882638,9.57778863 L72.1882638,8.18969326 C72.1760935,8.19080319 72.163773,8.19135815 72.1513022,8.19135815 C72.1236561,8.19135815 72.0957095,8.18858334 72.0676127,8.18303374 C71.9840735,8.16638492 71.912404,8.12642775 71.8590651,8.0720416" id="Fill-34" fill="#3E3545" sketch:type="MSShapeGroup"></path>
                    <path d="M64.1516694,5.42654412 C63.7078297,5.60649011 63.3971119,6.01632856 63.3971119,6.49192985 L63.3971119,7.30675085 C63.3971119,7.50792409 63.5738063,7.67094378 63.7915192,7.67094378 C64.0093823,7.67094378 64.1859265,7.50792409 64.1859265,7.30675085 L64.1859265,6.49192985 C64.1859265,6.38676481 64.2264942,6.29034039 64.2939566,6.21514322 L64.1516694,5.42654412" id="Fill-35" fill="#46394B" sketch:type="MSShapeGroup"></path>
                    <path d="M65.2004174,5.32900978 L64.6565109,5.32900978 C64.4771119,5.32900978 64.3062771,5.36383356 64.1516694,5.42654412 L64.2939566,6.21514322 C64.3803506,6.11885754 64.5107679,6.05739565 64.6565109,6.05739565 L65.1968114,6.05725691 C65.3076962,6.06433266 65.6996995,6.22624243 65.8146411,6.55144938 L66.1288147,7.89570285 L66.8005843,11.1240478 L67.1736561,9.05695804 L66.9017028,7.75016442 L66.5819699,6.38163142 L66.5738564,6.35305095 C66.3577963,5.69375768 65.6247245,5.32900978 65.2004174,5.32900978" id="Fill-36" fill="#46394B" sketch:type="MSShapeGroup"></path>
                    <path d="M71.7669616,7.74322741 C71.7657596,7.74822206 71.7645576,7.7532167 71.7635058,7.75835009 L71.090985,10.9908572 C70.9106845,11.5452629 70.6569115,11.5452629 70.5730718,11.5452629 L68.0939399,11.5452629 C67.8350584,11.5452629 67.6344741,11.2231083 67.578581,11.0019564 L67.1736561,9.05695804 L66.8005843,11.1240478 L66.8050918,11.14583 L66.8077963,11.1573454 C66.9394157,11.6949636 67.39798,12.2737875 68.0939399,12.2737875 L70.5730718,12.2737875 C70.6973289,12.2737875 70.8334558,12.2575549 70.9712354,12.2123256 C71.0810684,12.0982812 71.1579967,11.9556563 71.1868447,11.7958277 L71.8590651,8.0720416 C71.7764274,7.98796506 71.7375125,7.8696197 71.7653088,7.75016442 L71.7669616,7.74322741" id="Fill-37" fill="#46394B" sketch:type="MSShapeGroup"></path>
                    <path id="Fill-38" fill="#46394B" sketch:type="MSShapeGroup" d="M72.5380467,7.89667403 L72.536394,7.90388852 C72.4992821,8.06288475 72.3547412,8.17512555 72.1882638,8.18969326 L72.1882638,9.57778863 L72.5380467,7.89667403"></path>
                    <path id="Fill-39" fill="#3E3545" sketch:type="MSShapeGroup" d="M72.1882638,6.24802464 L71.8590651,8.0720416 C71.912404,8.12642775 71.9840735,8.16638492 72.0676127,8.18303374 C72.0957095,8.18858334 72.1236561,8.19135815 72.1513022,8.19135815 C72.163773,8.19135815 72.1760935,8.19080319 72.1882638,8.18969326 L72.1882638,6.24802464"></path>
                    <path id="Fill-40" fill="#46394B" sketch:type="MSShapeGroup" d="M72.1882638,6.13509014 C72.1504007,6.20362779 72.1182471,6.27632763 72.0931553,6.35305095 L72.085192,6.38163142 L71.7653088,7.75016442 C71.7375125,7.8696197 71.7764274,7.98796506 71.8590651,8.0720416 L72.1882638,6.24802464 L72.1882638,6.13509014"></path>
                    <path d="M74.0105008,5.32900978 L73.4665943,5.32900978 C73.0917195,5.32900978 72.4755426,5.61384334 72.1882638,6.13509014 L72.1882638,8.18969326 C72.3547412,8.17512555 72.4992821,8.06288475 72.536394,7.90388852 L72.8523706,6.55144938 C72.9674624,6.22624243 73.3593155,6.06433266 73.4665943,6.05739565 L74.0105008,6.05739565 C74.2699833,6.05739565 74.4810851,6.25232558 74.4810851,6.49192985 C74.4810851,6.69296435 74.6577796,6.85612279 74.8754925,6.85612279 C75.0933556,6.85612279 75.2698998,6.69296435 75.2698998,6.49192985 C75.2698998,5.8506728 74.7049583,5.32900978 74.0105008,5.32900978" id="Fill-41" fill="#46394B" sketch:type="MSShapeGroup"></path>
                    <path id="Fill-42" fill="#46394B" sketch:type="MSShapeGroup" d="M45.3957596,1.81291775 C45.2207179,1.85010011 45.0903005,1.99494485 45.0903005,2.1678151 C45.0903005,2.36551983 45.260985,2.52645842 45.4735893,2.53186929 L45.3957596,1.81291775"></path>
                    <path d="M49.9103339,1.80362216 L45.4847078,1.80362216 C45.4540568,1.80362216 45.4243072,1.80681318 45.3957596,1.81291775 L45.4735893,2.53186929 C45.4773456,2.53186929 45.4809516,2.53200803 45.4847078,2.53200803 L49.9103339,2.53200803 C50.202571,2.53200803 50.4404174,2.80588112 50.4404174,3.14232602 C50.4404174,3.15800366 50.4414691,3.1736813 50.4437229,3.1892202 L52.6941736,19.2162067 C52.6844073,19.5429398 52.4504674,19.8054362 52.1643907,19.8054362 L50.5200501,19.8054362 C50.2810017,19.8054362 50.1091152,19.5674968 50.0236227,19.2932075 L50.0272287,19.3136023 C50.0626878,19.5120007 49.9170952,19.6994387 49.7022371,19.7320426 C49.680601,19.7355111 49.6588147,19.737176 49.6376294,19.737176 C49.4480134,19.737176 49.2807846,19.6105063 49.2489316,19.4320864 L49.2020534,19.1691738 C49.1997997,19.1976155 49.2013022,19.226751 49.2067112,19.2560251 C49.3495993,20.0321376 49.8651085,20.5338221 50.5200501,20.5338221 L52.1643907,20.5338221 C52.8916027,20.5338221 53.4832888,19.9332159 53.4832888,19.1949795 C53.4832888,19.1793018 53.4822371,19.1636242 53.4799833,19.1480853 L51.2290818,3.11721405 C51.2157095,2.3906318 50.6292821,1.80362216 49.9103339,1.80362216" id="Fill-43" fill="#46394B" sketch:type="MSShapeGroup"></path>
                    <path d="M46.630217,13.2118098 L43.2842905,13.2118098 C43.0665776,13.2118098 42.8898831,13.3748295 42.8898831,13.5760027 C42.8898831,13.7770372 43.0665776,13.9400569 43.2842905,13.9400569 L46.7090985,13.9400569 L46.630217,13.2118098" id="Fill-44" fill="#46394B" sketch:type="MSShapeGroup"></path>
                    <path d="M47.9280801,13.2118098 L46.630217,13.2118098 L46.7090985,13.9400569 L47.960985,13.9400569 C47.9928381,13.9400569 48.0237896,13.9365884 48.053389,13.9300676 C48.0418197,13.9303451 48.0302504,13.9304839 48.0186811,13.9304839 C47.800818,13.9304839 47.6242738,13.7673254 47.6242738,13.5662909 C47.6242738,13.3939756 47.7539399,13.2495471 47.9280801,13.2118098" id="Fill-45" fill="#46394B" sketch:type="MSShapeGroup"></path>
                    <path d="M46.7804674,4.68719777 L46.7789649,4.68719777 C46.5620033,4.68803021 46.3860601,4.85077243 46.3860601,5.05152945 C46.3860601,5.25214773 46.5620033,5.41502868 46.7789649,5.41572238 L46.7804674,5.41572238 C47.1805843,5.41572238 47.4732721,5.50354491 47.6504174,5.67683138 C47.879399,5.900758 47.8627212,6.21944417 47.8627212,6.21944417 C47.8609182,6.24039393 47.8610684,6.26148244 47.863172,6.28229346 L48.3565943,11.0989358 C48.3361603,10.8987337 48.4952755,10.7210076 48.7120868,10.7021389 C48.7250083,10.7008903 48.7377796,10.7003353 48.7504007,10.7003353 C48.9500835,10.7003353 49.122571,10.8421278 49.141803,11.0303982 L48.6512354,6.23970023 C48.6563439,6.09208069 48.6405676,5.59275484 48.2347412,5.18735607 C47.9025376,4.85562833 47.4133222,4.68719777 46.7804674,4.68719777" id="Fill-46" fill="#46394B" sketch:type="MSShapeGroup"></path>
                    <path d="M48.7504007,10.7003353 C48.7377796,10.7003353 48.7250083,10.7008903 48.7120868,10.7021389 C48.4952755,10.7210076 48.3361603,10.8987337 48.3565943,11.0989358 L48.5254758,12.7485564 C48.5170618,12.9999536 48.2928881,13.202098 48.0186811,13.202098 C47.987429,13.202098 47.9572287,13.2054277 47.9280801,13.2118098 C47.7539399,13.2495471 47.6242738,13.3939756 47.6242738,13.5662909 C47.6242738,13.7673254 47.800818,13.9304839 48.0186811,13.9304839 C48.0302504,13.9304839 48.0418197,13.9303451 48.053389,13.9300676 C48.7519032,13.9130026 49.314591,13.3828764 49.314591,12.7338499 L49.312788,12.6995811 L49.141803,11.0303982 C49.122571,10.8421278 48.9500835,10.7003353 48.7504007,10.7003353" id="Fill-47" fill="#46394B" sketch:type="MSShapeGroup"></path>
                    <path d="M46.9571619,16.2307958 L43.2826377,16.2457797 C43.0647746,16.2466122 42.8889816,16.4103256 42.8898831,16.6114988 C42.8909349,16.8121171 43.0673289,16.9741656 43.2842905,16.9741656 L43.2860935,16.9741656 L47.0360434,16.9589042 L46.9571619,16.2307958" id="Fill-48" fill="#46394B" sketch:type="MSShapeGroup"></path>
                    <path d="M48.2452588,16.22483 C48.2233222,16.22483 48.2010851,16.2251075 48.1786978,16.2258012 L46.9571619,16.2307958 L47.0360434,16.9589042 L48.1880134,16.954187 L48.2006344,16.9539096 C48.2188147,16.9533546 48.2374457,16.9529384 48.256227,16.9529384 C48.508798,16.9529384 48.7987813,17.0189787 48.868197,17.2997888 L49.2489316,19.4320864 C49.2807846,19.6105063 49.4480134,19.737176 49.6376294,19.737176 C49.6588147,19.737176 49.680601,19.7355111 49.7022371,19.7320426 C49.9170952,19.6994387 50.0626878,19.5120007 50.0272287,19.3136023 L49.6448414,17.1718704 L49.6415359,17.1553603 C49.5079633,16.5755651 48.977429,16.22483 48.2452588,16.22483" id="Fill-49" fill="#46394B" sketch:type="MSShapeGroup"></path>
                    <path id="Fill-50" fill="#3E3545" sketch:type="MSShapeGroup"></path>
                    <path d="M30.3418698,1.80362216 L28.4720033,1.80362216 C27.7447913,1.80362216 27.1531052,2.40422834 27.1531052,3.14232602 L27.1531052,19.1949795 C27.1531052,19.9332159 27.7447913,20.5338221 28.4720033,20.5338221 L30.3418698,20.5338221 C31.0642738,20.5338221 31.6528047,19.9412628 31.6606177,19.2098247 L31.6606177,12.231333 C31.6564107,12.0336283 31.4813689,11.8744933 31.2662104,11.8744933 C31.0484975,11.8744933 30.871803,12.0376518 30.871803,12.238825 L30.871803,19.1949795 C30.871803,19.5315631 30.6342571,19.8054362 30.3418698,19.8054362 L28.4720033,19.8054362 C28.1797663,19.8054362 27.9419199,19.5315631 27.9419199,19.1949795 L27.9419199,3.14232602 C27.9419199,2.80588112 28.1797663,2.53200803 28.4720033,2.53200803 L30.3418698,2.53200803 C30.6342571,2.53200803 30.871803,2.80588112 30.871803,3.14232602 L30.871803,9.10288104 C30.871803,9.30391554 31.0484975,9.46707397 31.2662104,9.46707397 C31.4813689,9.46707397 31.6564107,9.307939 31.6606177,9.11023427 L31.6606177,3.12761956 C31.6528047,2.39618141 31.0642738,1.80362216 30.3418698,1.80362216" id="Fill-51" fill="#46394B" sketch:type="MSShapeGroup"></path>
                    <path id="Fill-52" fill="#3E3545" sketch:type="MSShapeGroup" d="M10.7424541,3.05061877 L10.7585793,3.14012786 L10.7608829,3.12736423 L10.7468841,3.06780059 C10.7454665,3.06190968 10.7440489,3.05618241 10.7424541,3.05061877"></path>
                    <path d="M6.00986644,1.80362216 L3.50924875,1.80362216 C2.78203673,1.80362216 2.19035058,2.40422834 2.19035058,3.14232602 L2.19035058,19.1949795 C2.19035058,19.9332159 2.78203673,20.5338221 3.50924875,20.5338221 L5.37911519,20.5338221 C6.10632721,20.5338221 6.69786311,19.9332159 6.69786311,19.1949795 L6.69786311,7.30675085 C6.69786311,7.50792409 6.52131886,7.67094378 6.30345576,7.67094378 C6.0857429,7.67094378 5.90904841,7.50792409 5.90904841,7.30675085 L5.90904841,6.57420277 L5.90904841,19.1949795 C5.90904841,19.5315631 5.67135225,19.8054362 5.37911519,19.8054362 L3.50924875,19.8054362 C3.21701169,19.8054362 2.97916528,19.5315631 2.97916528,19.1949795 L2.97916528,3.14232602 C2.97916528,2.80588112 3.21701169,2.53200803 3.50924875,2.53200803 L6.14118531,2.53200803 L6.00986644,1.80362216" id="Fill-53" fill="#46394B" sketch:type="MSShapeGroup"></path>
                    <path d="M9.43617696,1.80362216 L6.00986644,1.80362216 L6.14118531,2.53200803 L9.43617696,2.53200803 C9.62789649,2.53200803 9.70843072,2.53200803 9.98053422,3.24194146 L10.4075459,5.05763401 L10.7561269,3.12650964 L10.7424541,3.05061877 C10.7395993,3.04076822 10.7364441,3.03105641 10.7328381,3.02148334 C10.5046077,2.42268078 10.2685643,1.80362216 9.43617696,1.80362216" id="Fill-54" fill="#46394B" sketch:type="MSShapeGroup"></path>
                    <path id="Fill-55" fill="#3E3545" sketch:type="MSShapeGroup" d="M21.4616194,3.12123752 L21.4616194,19.216068 C21.4616194,19.2089922 21.4617966,19.2020552 21.4617966,19.1949795 L21.4617966,3.14232602 C21.4617966,3.13538901 21.4616194,3.12831326 21.4616194,3.12123752"></path>
                    <path d="M14.7002003,1.80362216 L14.215793,1.80362216 C13.3835559,1.80362216 13.1475125,2.42268078 12.9192821,3.02148334 C12.9138731,3.03563483 12.9093656,3.05034129 12.9059098,3.06518649 L12.0161269,6.8489083 C11.9289816,6.99264311 11.8651252,7.03967603 11.8430384,7.0527176 C11.790601,7.0316291 11.6972955,6.93742452 11.6349416,6.84474609 L10.7580801,3.11568791 L10.7561269,3.12650964 L10.4075459,5.05763401 L10.8769282,7.05382752 C10.8842905,7.08559902 10.8964608,7.1162606 10.9126878,7.14525729 C10.9730885,7.25180974 11.3013856,7.78387828 11.8469449,7.78387828 C12.1994324,7.78387828 12.499783,7.5691085 12.7392821,7.14525729 C12.7556594,7.1162606 12.7676795,7.08559902 12.7750417,7.05382752 L13.671586,3.24194146 C13.9436895,2.53200803 14.0240735,2.53200803 14.215793,2.53200803 L14.7002003,2.53200803 L14.7002003,1.80362216" id="Fill-56" fill="#46394B" sketch:type="MSShapeGroup"></path>
                    <path d="M20.1427212,1.80362216 L14.7002003,1.80362216 L14.7002003,2.53200803 L20.1427212,2.53200803 C20.4351085,2.53200803 20.6728047,2.80588112 20.6728047,3.14232602 L20.6728047,19.1949795 C20.6728047,19.5315631 20.4351085,19.8054362 20.1427212,19.8054362 L18.273005,19.8054362 C17.9806177,19.8054362 17.7429215,19.5315631 17.7429215,19.1949795 L17.7429215,9.69613399 C17.7429215,9.49509949 17.5663773,9.33194105 17.3485142,9.33194105 C17.1308013,9.33194105 16.9541068,9.49509949 16.9541068,9.69613399 L16.9541068,19.1949795 C16.9541068,19.9332159 17.545793,20.5338221 18.273005,20.5338221 L20.1427212,20.5338221 C20.863172,20.5338221 21.4503506,19.9445926 21.4616194,19.216068 L21.4616194,3.12123752 C21.4505008,2.3927129 20.863172,1.80362216 20.1427212,1.80362216" id="Fill-57" fill="#46394B" sketch:type="MSShapeGroup"></path>
                    <path d="M6.66375626,5.42654412 C6.21976628,5.60649011 5.90904841,6.01632856 5.90904841,6.49192985 L5.90904841,7.30675085 C5.90904841,7.50792409 6.0857429,7.67094378 6.30345576,7.67094378 C6.52131886,7.67094378 6.69786311,7.50792409 6.69786311,7.30675085 L6.69786311,6.49192985 C6.69786311,6.38676481 6.73858097,6.29034039 6.80604341,6.21514322 L6.66375626,5.42654412" id="Fill-58" fill="#46394B" sketch:type="MSShapeGroup"></path>
                    <path d="M7.71250417,5.32900978 L7.16859766,5.32900978 C6.98919866,5.32900978 6.81836394,5.36383356 6.66375626,5.42654412 L6.80604341,6.21514322 C6.8924374,6.11885754 7.02285476,6.05739565 7.16859766,6.05739565 L7.70874791,6.05725691 C7.81978297,6.06433266 8.21163606,6.22624243 8.32672788,6.55158812 L8.6409015,7.89570285 L9.31252087,11.1241865 L9.6857429,9.05695804 L9.41378965,7.75016442 L9.09405676,6.38163142 L9.08594324,6.35305095 C8.86988314,5.69361894 8.13651085,5.32900978 7.71250417,5.32900978" id="Fill-59" fill="#46394B" sketch:type="MSShapeGroup"></path>
                    <path d="M14.3710017,8.0720416 L13.6989316,11.7958277 C13.6700835,11.9556563 13.5931553,12.09842 13.483172,12.2123256 C13.8182304,12.1023047 14.1624541,11.8201072 14.3651419,11.1791276 L14.3740067,11.14583 L14.7002003,9.57778863 L14.7002003,8.18969326 C14.6880301,8.19080319 14.6757095,8.19135815 14.6632387,8.19135815 C14.6355927,8.19135815 14.6076461,8.18858334 14.5796995,8.18303374 C14.49601,8.16638492 14.4243406,8.12642775 14.3710017,8.0720416" id="Fill-60" fill="#3E3545" sketch:type="MSShapeGroup"></path>
                    <path d="M14.2790484,7.74308867 C14.2776962,7.74808332 14.2764942,7.7532167 14.2754424,7.75835009 L13.6029215,10.9908572 C13.4227713,11.5452629 13.1689983,11.5452629 13.0851586,11.5452629 L10.6058765,11.5452629 C10.346995,11.5452629 10.1464107,11.2231083 10.0903673,11.0019564 L9.6857429,9.05695804 L9.31252087,11.1241865 L9.31702838,11.14583 L9.31973289,11.1573454 C9.45135225,11.6949636 9.90991653,12.2737875 10.6058765,12.2737875 L13.0851586,12.2737875 C13.2092654,12.2737875 13.3453923,12.2575549 13.483172,12.2123256 C13.5931553,12.09842 13.6700835,11.9556563 13.6989316,11.7958277 L14.3710017,8.0720416 C14.2883639,7.9881038 14.2494491,7.8696197 14.2773957,7.75016442 L14.2790484,7.74308867" id="Fill-61" fill="#46394B" sketch:type="MSShapeGroup"></path>
                    <path id="Fill-62" fill="#46394B" sketch:type="MSShapeGroup" d="M15.0499833,7.89667403 L15.0483306,7.90388852 C15.0112187,8.06288475 14.866828,8.17512555 14.7002003,8.18969326 L14.7002003,9.57778863 L15.0499833,7.89667403"></path>
                    <path id="Fill-63" fill="#3E3545" sketch:type="MSShapeGroup" d="M14.7002003,6.24802464 L14.3710017,8.0720416 C14.4243406,8.12642775 14.49601,8.16638492 14.5796995,8.18303374 C14.6076461,8.18858334 14.6355927,8.19135815 14.6632387,8.19135815 C14.6757095,8.19135815 14.6880301,8.19080319 14.7002003,8.18969326 L14.7002003,6.24802464"></path>
                    <path id="Fill-64" fill="#46394B" sketch:type="MSShapeGroup" d="M14.7002003,6.13509014 C14.6624875,6.20362779 14.6303339,6.27632763 14.6052421,6.35305095 L14.5971285,6.38163142 L14.2773957,7.75016442 C14.2494491,7.8696197 14.2883639,7.9881038 14.3710017,8.0720416 L14.7002003,6.24802464 L14.7002003,6.13509014"></path>
                    <path d="M16.5225876,5.32900978 L15.9786811,5.32900978 C15.6038063,5.32900978 14.9876294,5.6137046 14.7002003,6.13509014 L14.7002003,8.18969326 C14.866828,8.17512555 15.0112187,8.06288475 15.0483306,7.90388852 L15.3644574,6.55158812 C15.4795492,6.22624243 15.8714023,6.06433266 15.9786811,6.05739565 L16.5225876,6.05739565 C16.7820701,6.05739565 16.993172,6.25232558 16.993172,6.49192985 C16.993172,6.69296435 17.1698664,6.85612279 17.3875793,6.85612279 C17.6054424,6.85612279 17.7819866,6.69296435 17.7819866,6.49192985 C17.7819866,5.8506728 17.2170451,5.32900978 16.5225876,5.32900978" id="Fill-65" fill="#46394B" sketch:type="MSShapeGroup"></path>
                    <path d="M42.7208514,12.8474781 C42.7208514,12.4111403 42.3377129,12.0573529 41.8651753,12.0573529 C41.3926377,12.0573529 41.0096494,12.4111403 41.0096494,12.8474781 C41.0096494,13.2838159 41.3926377,13.6374646 41.8651753,13.6374646 C42.3377129,13.6374646 42.7208514,13.2838159 42.7208514,12.8474781" id="Fill-66" fill="#303838" sketch:type="MSShapeGroup"></path>
                    <path d="M88.6788481,8.45926541 C88.6788481,8.02292758 88.2957095,7.6692789 87.8233222,7.6692789 C87.3506344,7.6692789 86.9676461,8.02292758 86.9676461,8.45926541 C86.9676461,8.89560323 87.3506344,9.24939065 87.8233222,9.24939065 C88.2957095,9.24939065 88.6788481,8.89560323 88.6788481,8.45926541" id="Fill-67" fill="#303838" sketch:type="MSShapeGroup"></path>
                    <path d="M88.6788481,11.4932354 C88.6788481,11.0568975 88.2957095,10.7032489 87.8233222,10.7032489 C87.3506344,10.7032489 86.9676461,11.0568975 86.9676461,11.4932354 C86.9676461,11.9295732 87.3506344,12.2833606 87.8233222,12.2833606 C88.2957095,12.2833606 88.6788481,11.9295732 88.6788481,11.4932354" id="Fill-68" fill="#303838" sketch:type="MSShapeGroup"></path>
                    <path d="M74.6762604,9.01436481 C74.6762604,8.57802699 74.2932721,8.22423957 73.8207346,8.22423957 C73.348197,8.22423957 72.9650584,8.57802699 72.9650584,9.01436481 C72.9650584,9.45070263 73.348197,9.80435132 73.8207346,9.80435132 C74.2932721,9.80435132 74.6762604,9.45070263 74.6762604,9.01436481" id="Fill-69" fill="#303838" sketch:type="MSShapeGroup"></path>
                    <path d="M74.6762604,5.99648872 C74.6762604,5.56001216 74.2932721,5.20636347 73.8207346,5.20636347 C73.348197,5.20636347 72.9650584,5.56001216 72.9650584,5.99648872 C72.9650584,6.4326878 73.348197,6.78647522 73.8207346,6.78647522 C74.2932721,6.78647522 74.6762604,6.4326878 74.6762604,5.99648872" id="Fill-70" fill="#303838" sketch:type="MSShapeGroup"></path>
                    <path d="M42.7208514,15.8814481 C42.7208514,15.4451102 42.3377129,15.0914616 41.8651753,15.0914616 C41.3926377,15.0914616 41.0096494,15.4451102 41.0096494,15.8814481 C41.0096494,16.3177859 41.3926377,16.6715733 41.8651753,16.6715733 C42.3377129,16.6715733 42.7208514,16.3177859 42.7208514,15.8814481" id="Fill-71" fill="#303838" sketch:type="MSShapeGroup"></path>
                    <path d="M39.6010518,19.8052974 L37.9567112,19.8052974 C37.2294992,19.8052974 36.637813,19.2046913 36.637813,18.4664548 C36.637813,18.4507772 36.6388648,18.4352383 36.6411185,18.4195607 L38.89202,2.38868944 C38.9053923,1.66210719 39.4918197,1.07509755 40.2107679,1.07509755 L44.636394,1.07509755 C44.8542571,1.07509755 45.0308013,1.23825598 45.0308013,1.43929048 C45.0308013,1.64046372 44.8542571,1.80348342 44.636394,1.80348342 L40.2107679,1.80348342 C39.9185309,1.80348342 39.6806845,2.07735651 39.6806845,2.41394015 C39.6806845,2.42947905 39.6794825,2.44515669 39.677379,2.46069559 L37.4269282,18.4876821 C37.4366945,18.8145539 37.6706344,19.0769116 37.9567112,19.0769116 L39.6010518,19.0769116 C39.8934391,19.0769116 40.1311352,18.8030385 40.1311352,18.4664548 L40.1329382,18.4317698 L41.4710684,5.50021514 C41.4808347,5.05291685 41.8292654,3.95895064 43.3406344,3.95895064 L45.6505843,3.95895064 C45.8684474,3.95895064 46.0449917,4.12197033 46.0449917,4.32314358 C46.0449917,4.52417808 45.8684474,4.68733651 45.6505843,4.68733651 L43.3406344,4.68733651 C42.3277963,4.68733651 42.2622871,5.38353466 42.2595826,5.52296853 L42.2577796,5.55432381 L40.9199499,18.485046 C40.9100334,19.2146806 40.3222538,19.8052974 39.6010518,19.8052974" id="Fill-72" fill="#A85AA6" sketch:type="MSShapeGroup"></path>
                    <path d="M76.5037563,19.8052974 L74.6340401,19.8052974 C73.9066778,19.8052974 73.3149917,19.2046913 73.3149917,18.4664548 L73.3149917,8.96774812 C73.3149917,8.76671361 73.4916861,8.60355518 73.709399,8.60355518 C73.9272621,8.60355518 74.1038063,8.76671361 74.1038063,8.96774812 L74.1038063,18.4664548 C74.1038063,18.8030385 74.3416528,19.0769116 74.6340401,19.0769116 L76.5037563,19.0769116 C76.7961436,19.0769116 77.0338397,18.8030385 77.0338397,18.4664548 L77.0338397,2.41394015 C77.0338397,2.07735651 76.7961436,1.80348342 76.5037563,1.80348342 L70.5766778,1.80348342 C70.3851085,1.80348342 70.3047245,1.80362216 70.032621,2.51355559 L69.1360768,6.32544165 C69.1287145,6.35721315 69.1166945,6.38787473 69.1003172,6.41687142 C68.860818,6.84058389 68.5604674,7.05549241 68.20798,7.05549241 C67.6624207,7.05563115 67.3339733,6.52342387 67.2737229,6.41687142 C67.2573456,6.38787473 67.2453255,6.35721315 67.2379633,6.32544165 L66.3415693,2.51355559 C66.0693155,1.80348342 65.9889316,1.80348342 65.797212,1.80348342 L59.8702838,1.80348342 C59.5780467,1.80348342 59.3402003,2.07735651 59.3402003,2.41394015 L59.3402003,18.4664548 C59.3402003,18.8030385 59.5780467,19.0769116 59.8702838,19.0769116 L61.74,19.0769116 C62.0322371,19.0769116 62.2700835,18.8030385 62.2700835,18.4664548 L62.2700835,5.8458169 C62.2700835,5.6447824 62.446778,5.48162396 62.6644908,5.48162396 C62.8823539,5.48162396 63.0588982,5.6447824 63.0588982,5.8458169 L63.0588982,18.4664548 C63.0588982,19.2046913 62.4673623,19.8052974 61.74,19.8052974 L59.8702838,19.8052974 C59.1430718,19.8052974 58.5513856,19.2046913 58.5513856,18.4664548 L58.5513856,2.41394015 C58.5513856,1.67570373 59.1430718,1.07509755 59.8702838,1.07509755 L65.797212,1.07509755 C66.6292988,1.07509755 66.8654925,1.69429491 67.0938731,2.29295872 C67.0992821,2.30724896 67.1037896,2.32181668 67.1070952,2.33666188 L67.9958264,6.11622148 C68.0581803,6.20903865 68.1516361,6.30324323 68.2040735,6.32433173 C68.2261603,6.31115141 68.2900167,6.2641185 68.3771619,6.12052243 L69.2669449,2.33666188 C69.2704007,2.32181668 69.2749082,2.30724896 69.2803172,2.29295872 C69.5085476,1.69429491 69.744591,1.07509755 70.5766778,1.07509755 L76.5037563,1.07509755 C77.2309683,1.07509755 77.8226544,1.67570373 77.8226544,2.41394015 L77.8226544,18.4664548 C77.8226544,19.2046913 77.2309683,19.8052974 76.5037563,19.8052974" id="Fill-73" fill="#A85AA6" sketch:type="MSShapeGroup"></path>
                    <path d="M71.0242738,7.46283353 C70.9966277,7.46283353 70.9686811,7.46005873 70.9407346,7.45450912 C70.7276795,7.41219337 70.5923038,7.21837336 70.6384307,7.02177855 L70.9581636,5.65310681 L70.9662771,5.62452633 C71.182187,4.96523306 71.915409,4.60048517 72.3395659,4.60048517 L72.8836227,4.60048517 C73.5779299,4.60048517 74.1430217,5.12214819 74.1430217,5.76354398 C74.1430217,5.96457848 73.9663272,6.12773692 73.7486144,6.12773692 C73.5307513,6.12773692 73.354207,5.96457848 73.354207,5.76354398 C73.354207,5.52393971 73.1431052,5.32887104 72.8836227,5.32887104 L72.3395659,5.32887104 C72.2322871,5.33594679 71.8404341,5.49771782 71.7254925,5.82292477 L71.4093656,7.17536391 C71.3695492,7.34615305 71.2060768,7.46283353 71.0242738,7.46283353" id="Fill-75" fill="#A85AA6" sketch:type="MSShapeGroup"></path>
                    <path d="M51.0373623,19.8052974 L49.3930217,19.8052974 C48.7380801,19.8052974 48.222571,19.3037517 48.0796828,18.5275005 C48.043172,18.3292408 48.1877129,18.1412479 48.4024207,18.1073953 C48.6169783,18.0736814 48.8208681,18.2071495 48.8572287,18.4054092 C48.9189816,18.7396342 49.1084474,19.0769116 49.3930217,19.0769116 L51.0373623,19.0769116 C51.3234391,19.0769116 51.557379,18.8145539 51.5671452,18.4876821 L49.3166945,2.46069559 C49.314591,2.44515669 49.313389,2.42947905 49.313389,2.41394015 C49.313389,2.07735651 49.0756928,1.80348342 48.7833055,1.80348342 L44.3576795,1.80348342 C44.1398164,1.80348342 43.9632721,1.64046372 43.9632721,1.43929048 C43.9632721,1.23825598 44.1398164,1.07509755 44.3576795,1.07509755 L48.7833055,1.07509755 C49.502404,1.07509755 50.0888314,1.66196845 50.1020534,2.38882818 L52.3529549,18.4195607 C52.3552087,18.4352383 52.3562604,18.4507772 52.3562604,18.4664548 C52.3562604,19.2046913 51.7647245,19.8052974 51.0373623,19.8052974" id="Fill-76" fill="#A85AA6" sketch:type="MSShapeGroup"></path>
                    <path d="M46.8339566,13.2116711 L42.1574124,13.2116711 C41.9395492,13.2116711 41.763005,13.0485126 41.763005,12.8474781 C41.763005,12.6463049 41.9395492,12.4832852 42.1574124,12.4832852 L46.8339566,12.4832852 C47.0516694,12.4832852 47.2283639,12.6463049 47.2283639,12.8474781 C47.2283639,13.0485126 47.0516694,13.2116711 46.8339566,13.2116711" id="Fill-77" fill="#A85AA6" sketch:type="MSShapeGroup"></path>
                    <path d="M47.6217195,10.7003353 C47.4206845,10.7003353 47.248798,10.5589591 47.2295659,10.3704112 L46.7362938,5.55390759 C46.7340401,5.53309656 46.7338898,5.51200806 46.7356928,5.49105829 C46.7356928,5.49105829 46.7523706,5.17237213 46.523389,4.9484455 C46.3462437,4.77515904 46.0535559,4.68733651 45.6534391,4.68733651 C45.4357262,4.68733651 45.2590317,4.52417808 45.2590317,4.32314358 C45.2590317,4.12197033 45.4357262,3.95895064 45.6534391,3.95895064 C46.2864441,3.95895064 46.7756594,4.12710372 47.1077129,4.4589702 C47.5135392,4.86436896 47.5293155,5.36369482 47.524207,5.51131436 L48.0149249,10.3020123 C48.0353589,10.5020756 47.8762437,10.6798018 47.6592821,10.6988092 L47.6217195,10.7003353" id="Fill-78" fill="#A85AA6" sketch:type="MSShapeGroup"></path>
                    <path d="M46.8916528,13.2019592 C46.6737896,13.2019592 46.4972454,13.0389395 46.4972454,12.8377663 C46.4972454,12.6367318 46.6737896,12.4735734 46.8916528,12.4735734 C47.1658598,12.4735734 47.3900334,12.2714289 47.3984474,12.0200318 L47.2295659,10.3704112 C47.2091319,10.1702091 47.3682471,9.99248298 47.5852087,9.97361432 C47.8009683,9.95474566 47.9943406,10.1016715 48.0149249,10.3020123 L48.1857596,11.9710565 L48.1875626,12.0053253 C48.1875626,12.6651735 47.6060935,13.2019592 46.8916528,13.2019592" id="Fill-79" fill="#A85AA6" sketch:type="MSShapeGroup"></path>
                    <path d="M48.510601,19.0086514 C48.320985,19.0086514 48.1537563,18.8819816 48.1219032,18.7035618 L47.7411686,16.5712642 C47.6669449,16.2697818 47.3409015,16.2169218 47.0737563,16.2256624 L47.0611352,16.2258012 L42.1592154,16.245641 L42.1574124,16.245641 C41.9403005,16.245641 41.7639065,16.0835925 41.763005,15.883113 C41.7619533,15.681801 41.9378965,15.5182263 42.1556093,15.5172551 L47.0515192,15.4974153 C47.8208013,15.4759106 48.3768781,15.8295592 48.5145075,16.4269744 L48.517813,16.4433457 L48.9002003,18.5850777 C48.9356594,18.7834761 48.790217,18.9709141 48.5752087,19.0036568 C48.5535726,19.0069865 48.5319366,19.0086514 48.510601,19.0086514" id="Fill-80" fill="#A85AA6" sketch:type="MSShapeGroup"></path>
                    <path d="M31.0231052,8.45926541 C31.0231052,8.02292758 30.6399666,7.6692789 30.167429,7.6692789 C29.6948915,7.6692789 29.3119032,8.02292758 29.3119032,8.45926541 C29.3119032,8.89560323 29.6948915,9.24939065 30.167429,9.24939065 C30.6399666,9.24939065 31.0231052,8.89560323 31.0231052,8.45926541" id="Fill-81" fill="#303838" sketch:type="MSShapeGroup"></path>
                    <path d="M31.0231052,11.4932354 C31.0231052,11.0568975 30.6399666,10.7032489 30.167429,10.7032489 C29.6948915,10.7032489 29.3119032,11.0568975 29.3119032,11.4932354 C29.3119032,11.9295732 29.6948915,12.2833606 30.167429,12.2833606 C30.6399666,12.2833606 31.0231052,11.9295732 31.0231052,11.4932354" id="Fill-82" fill="#303838" sketch:type="MSShapeGroup"></path>
                    <path d="M29.2148414,19.8052974 L27.3451252,19.8052974 C26.6177629,19.8052974 26.0260768,19.2046913 26.0260768,18.4664548 L26.0260768,2.41394015 C26.0260768,1.67570373 26.6177629,1.07509755 27.3451252,1.07509755 L29.2148414,1.07509755 C29.9420534,1.07509755 30.5337396,1.67570373 30.5337396,2.41394015 L30.5337396,8.37449516 C30.5337396,8.57552967 30.3570451,8.7386881 30.1393322,8.7386881 C29.9214691,8.7386881 29.7449249,8.57552967 29.7449249,8.37449516 L29.7449249,2.41394015 C29.7449249,2.07735651 29.5072287,1.80348342 29.2148414,1.80348342 L27.3451252,1.80348342 C27.0527379,1.80348342 26.8148915,2.07735651 26.8148915,2.41394015 L26.8148915,18.4664548 C26.8148915,18.8030385 27.0527379,19.0769116 27.3451252,19.0769116 L29.2148414,19.0769116 C29.5072287,19.0769116 29.7449249,18.8030385 29.7449249,18.4664548 L29.7449249,11.5103004 C29.7449249,11.3091272 29.9214691,11.1461075 30.1393322,11.1461075 C30.3570451,11.1461075 30.5337396,11.3091272 30.5337396,11.5103004 L30.5337396,18.4664548 C30.5337396,19.2046913 29.9420534,19.8052974 29.2148414,19.8052974" id="Fill-83" fill="#A85AA6" sketch:type="MSShapeGroup"></path>
                    <path d="M17.0205175,9.01436481 C17.0205175,8.57802699 16.6375292,8.22423957 16.1649917,8.22423957 C15.6924541,8.22423957 15.3093155,8.57802699 15.3093155,9.01436481 C15.3093155,9.45070263 15.6924541,9.80435132 16.1649917,9.80435132 C16.6375292,9.80435132 17.0205175,9.45070263 17.0205175,9.01436481" id="Fill-84" fill="#303838" sketch:type="MSShapeGroup"></path>
                    <path d="M17.0205175,5.99648872 C17.0205175,5.56001216 16.6375292,5.20636347 16.1649917,5.20636347 C15.6924541,5.20636347 15.3093155,5.56001216 15.3093155,5.99648872 C15.3093155,6.4326878 15.6924541,6.78647522 16.1649917,6.78647522 C16.6375292,6.78647522 17.0205175,6.4326878 17.0205175,5.99648872" id="Fill-85" fill="#303838" sketch:type="MSShapeGroup"></path>
                    <path d="M19.0158431,19.8052974 L17.1459766,19.8052974 C16.4187646,19.8052974 15.8272287,19.2046913 15.8272287,18.4664548 L15.8272287,8.96774812 C15.8272287,8.76671361 16.003773,8.60355518 16.2216361,8.60355518 C16.4393489,8.60355518 16.6160434,8.76671361 16.6160434,8.96774812 L16.6160434,18.4664548 C16.6160434,18.8030385 16.8537396,19.0769116 17.1459766,19.0769116 L19.0158431,19.0769116 C19.3080801,19.0769116 19.5459265,18.8030385 19.5459265,18.4664548 L19.5459265,2.41394015 C19.5459265,2.07735651 19.3080801,1.80348342 19.0158431,1.80348342 L13.0889149,1.80348342 C12.8971953,1.80348342 12.8166611,1.80362216 12.5445576,2.51355559 L11.6480134,6.32544165 C11.6406511,6.35721315 11.6286311,6.38787473 11.6122538,6.41687142 C11.3727546,6.84058389 11.072404,7.05549241 10.7199165,7.05549241 C10.1745075,7.05549241 9.8460601,6.52342387 9.78580968,6.41687142 C9.76943239,6.38787473 9.75741235,6.35721315 9.75005008,6.32544165 L8.85350584,2.51355559 C8.58140234,1.80362216 8.50086811,1.80348342 8.30929883,1.80348342 L2.38222037,1.80348342 C2.08998331,1.80348342 1.85213689,2.07735651 1.85213689,2.41394015 L1.85213689,18.4664548 C1.85213689,18.8030385 2.08998331,19.0769116 2.38222037,19.0769116 L4.25208681,19.0769116 C4.54447412,19.0769116 4.78217028,18.8030385 4.78217028,18.4664548 L4.78217028,5.8458169 C4.78217028,5.6447824 4.95871452,5.48162396 5.17657763,5.48162396 C5.39429048,5.48162396 5.57098497,5.6447824 5.57098497,5.8458169 L5.57098497,18.4664548 C5.57098497,19.2046913 4.97929883,19.8052974 4.25208681,19.8052974 L2.38222037,19.8052974 C1.65500835,19.8052974 1.0633222,19.2046913 1.0633222,18.4664548 L1.0633222,2.41394015 C1.0633222,1.67570373 1.65500835,1.07509755 2.38222037,1.07509755 L8.30929883,1.07509755 C9.14153589,1.07509755 9.3775793,1.69429491 9.60580968,2.29295872 C9.6112187,2.30724896 9.61572621,2.32181668 9.61918197,2.33666188 L10.5080634,6.11622148 C10.5702671,6.20903865 10.6635726,6.30324323 10.7161603,6.32433173 C10.7382471,6.31115141 10.8019533,6.2641185 10.8890985,6.12052243 L11.7788815,2.33666188 C11.7823372,2.32181668 11.7868447,2.30724896 11.7922538,2.29295872 C12.0204841,1.69429491 12.2565275,1.07509755 13.0889149,1.07509755 L19.0158431,1.07509755 C19.7430551,1.07509755 20.3347412,1.67570373 20.3347412,2.41394015 L20.3347412,18.4664548 C20.3347412,19.2046913 19.7430551,19.8052974 19.0158431,19.8052974" id="Fill-86" fill="#A85AA6" sketch:type="MSShapeGroup"></path>
                    <path d="M11.9581302,11.5454017 L9.47899833,11.5454017 C8.7830384,11.5454017 8.32447412,10.9665777 8.19270451,10.4290983 L8.19,10.4174441 L7.51387312,7.16731698 L7.1996995,5.82306351 C7.08460768,5.49771782 6.69275459,5.33580805 6.58186978,5.3287323 L6.04156928,5.32887104 C5.78193656,5.32887104 5.57098497,5.52393971 5.57098497,5.76354398 L5.57098497,6.57836497 C5.57098497,6.77939948 5.39429048,6.94255791 5.17657763,6.94255791 C4.95871452,6.94255791 4.78217028,6.77939948 4.78217028,6.57836497 L4.78217028,5.76354398 C4.78217028,5.12214819 5.34711185,4.60048517 6.04156928,4.60048517 L6.58547579,4.60048517 C7.00963272,4.60048517 7.74285476,4.96509432 7.95891486,5.62452633 L7.96702838,5.65310681 L8.28676127,7.02177855 L8.9633389,10.2734318 C9.0193823,10.4945836 9.21996661,10.816877 9.47899833,10.816877 L11.9581302,10.816877 C12.0419699,10.816877 12.2957429,10.816877 12.4760434,10.2624713 L13.148414,7.02982548 C13.1895826,6.83225948 13.3963272,6.70267616 13.6102838,6.74082971 C13.8240902,6.77884451 13.9642738,6.96975098 13.9232554,7.16731698 L13.2469783,10.4174441 L13.2381135,10.4507418 C12.9518865,11.3554664 12.3840902,11.5454017 11.9581302,11.5454017" id="Fill-87" fill="#A85AA6" sketch:type="MSShapeGroup"></path>
                    <path d="M13.5362104,7.46283353 C13.5087145,7.46283353 13.4807679,7.46005873 13.4526711,7.45450912 C13.2397663,7.41219337 13.1043907,7.21837336 13.1503673,7.02177855 L13.4701002,5.65310681 L13.4782137,5.62452633 C13.6942738,4.96509432 14.4274958,4.60048517 14.8516528,4.60048517 L15.3955593,4.60048517 C16.0900167,4.60048517 16.6549583,5.12214819 16.6549583,5.76354398 C16.6549583,5.96457848 16.478414,6.12773692 16.2605509,6.12773692 C16.0428381,6.12773692 15.8661436,5.96457848 15.8661436,5.76354398 C15.8661436,5.52393971 15.6550417,5.32887104 15.3955593,5.32887104 L14.8516528,5.32887104 C14.744374,5.33580805 14.3525209,5.49771782 14.237429,5.82306351 L13.9213022,7.17536391 C13.8814858,7.34615305 13.7180134,7.46283353 13.5362104,7.46283353" id="Fill-88" fill="#A85AA6" sketch:type="MSShapeGroup"></path>
                    <path d="M39.6010518,19.5451596 L37.9567112,19.5451596 C37.3848581,19.5451596 36.9195326,19.0612339 36.9195326,18.4664548 L36.9205843,18.4531358 L39.1735893,2.40700314 C39.1771953,1.81541507 39.6410184,1.33523536 40.2107679,1.33523536 L44.636394,1.33523536 C44.6987479,1.33523536 44.7490818,1.38185205 44.7490818,1.43929048 C44.7490818,1.49686765 44.6987479,1.54334561 44.636394,1.54334561 L40.2107679,1.54334561 C39.7630217,1.54334561 39.3989649,1.93389918 39.3989649,2.41394015 L39.3980634,2.42725921 L37.1449082,18.4731144 C37.1482137,18.9501031 37.5112187,19.3370494 37.9567112,19.3370494 L39.6010518,19.3370494 C40.048798,19.3370494 40.4128548,18.9464958 40.4128548,18.4664548 L41.7530885,5.50992696 C41.7524875,5.50673593 41.7706678,4.21908845 43.3406344,4.21908845 L45.6505843,4.21908845 C45.7129382,4.21908845 45.7632721,4.26556641 45.7632721,4.32314358 C45.7632721,4.380582 45.7129382,4.4271987 45.6505843,4.4271987 L43.3406344,4.4271987 C41.9990484,4.4271987 41.9781636,5.47538065 41.9778631,5.51991625 L40.6377796,18.4763054 C40.6382304,19.0612339 40.1730551,19.5451596 39.6010518,19.5451596" id="Fill-89" fill="#FFFFFF" sketch:type="MSShapeGroup"></path>
                    <path d="M76.5037563,19.5451596 L74.6340401,19.5451596 C74.0620367,19.5451596 73.5967112,19.0612339 73.5967112,18.4664548 L73.5967112,8.96774812 C73.5967112,8.91030969 73.6471953,8.86369299 73.709399,8.86369299 C73.7717529,8.86369299 73.8220868,8.91030969 73.8220868,8.96774812 L73.8220868,18.4664548 C73.8220868,18.9464958 74.1862938,19.3370494 74.6340401,19.3370494 L76.5037563,19.3370494 C76.9513523,19.3370494 77.3155593,18.9464958 77.3155593,18.4664548 L77.3155593,2.41394015 C77.3155593,1.93389918 76.9513523,1.54334561 76.5037563,1.54334561 L70.5766778,1.54334561 C70.1669449,1.54334561 70.0267613,1.74604499 69.7609683,2.44238188 L68.860818,6.27022307 L68.850601,6.29644496 C68.6635392,6.62747899 68.4471786,6.79535459 68.20798,6.79535459 C67.8101169,6.79535459 67.5348581,6.31670102 67.5234391,6.29644496 L67.5130718,6.27022307 L66.613222,2.44238188 C66.3472788,1.74604499 66.2069449,1.54334561 65.797212,1.54334561 L59.8702838,1.54334561 C59.4226878,1.54334561 59.0584808,1.93389918 59.0584808,2.41394015 L59.0584808,18.4664548 C59.0584808,18.9464958 59.4226878,19.3370494 59.8702838,19.3370494 L61.74,19.3370494 C62.1877462,19.3370494 62.551803,18.9464958 62.551803,18.4664548 L62.551803,5.8458169 C62.551803,5.78837847 62.6022871,5.74176177 62.6644908,5.74176177 C62.7268447,5.74176177 62.7771786,5.78837847 62.7771786,5.8458169 L62.7771786,18.4664548 C62.7771786,19.0612339 62.3120033,19.5451596 61.74,19.5451596 L59.8702838,19.5451596 C59.2984307,19.5451596 58.8331052,19.0612339 58.8331052,18.4664548 L58.8331052,2.41394015 C58.8331052,1.81916106 59.2984307,1.33523536 59.8702838,1.33523536 L65.797212,1.33523536 C66.3992654,1.33523536 66.5812187,1.73189349 66.8280801,2.37939385 L66.8319866,2.39188046 L67.7300334,6.21181346 C67.7988481,6.32682905 67.9986811,6.58724435 68.20798,6.58724435 L68.2081302,6.58724435 C68.3890317,6.58696687 68.5436394,6.3860711 68.6438564,6.21222968 L69.5422037,2.39188046 L69.5459599,2.37939385 C69.7928214,1.73189349 69.9746244,1.33523536 70.5766778,1.33523536 L76.5037563,1.33523536 C77.0756093,1.33523536 77.5409349,1.81916106 77.5409349,2.41394015 L77.5409349,18.4664548 C77.5409349,19.0612339 77.0756093,19.5451596 76.5037563,19.5451596" id="Fill-90" fill="#FFFFFF" sketch:type="MSShapeGroup"></path>
                    <path d="M69.4461937,11.2852638 L66.9669115,11.2852638 C66.3890484,11.2852638 66.0454257,10.7389051 65.955576,10.3716599 L65.2785476,7.11820296 L64.9592654,5.75188981 C64.8046578,5.28128316 64.2556427,5.06873323 64.0735392,5.06873323 L63.5294825,5.06873323 C63.1147913,5.06873323 62.7771786,5.38048238 62.7771786,5.76354398 L62.7771786,6.57836497 C62.7771786,6.63594214 62.7268447,6.6824201 62.6644908,6.6824201 C62.6022871,6.6824201 62.551803,6.63594214 62.551803,6.57836497 L62.551803,5.76354398 C62.551803,5.26574426 62.990384,4.86062298 63.5294825,4.86062298 L64.0735392,4.86062298 C64.3173957,4.86062298 64.9815025,5.10203087 65.1772788,5.69986224 L65.4994157,7.07658091 L66.1761436,10.3290666 C66.2493155,10.6277742 66.5211185,11.0770149 66.9669115,11.0770149 L69.4461937,11.0770149 C69.8134057,11.0770149 70.0804007,10.8222879 70.2393656,10.3194936 L70.9130885,7.07893949 C70.9251085,7.02261099 70.9843072,6.98612232 71.0451586,6.9963891 C71.1063105,7.00721083 71.1462771,7.06173571 71.1345576,7.11820296 L70.4582805,10.3683301 C70.2653589,10.9798967 69.9256427,11.2852638 69.4461937,11.2852638" id="Fill-91" fill="#FFFFFF" sketch:type="MSShapeGroup"></path>
                    <path d="M71.0239733,7.20255698 L71.0000835,7.20033714 C70.9392321,7.188128 70.9006177,7.13277068 70.9136895,7.07658091 L71.2335726,5.70804791 C71.4316027,5.10203087 72.0957095,4.86062298 72.3395659,4.86062298 L72.8836227,4.86062298 C73.4227212,4.86062298 73.8613022,5.26574426 73.8613022,5.76354398 C73.8613022,5.82098241 73.810818,5.8675991 73.7486144,5.8675991 C73.6862604,5.8675991 73.6359265,5.82098241 73.6359265,5.76354398 C73.6359265,5.38048238 73.2983139,5.06873323 72.8836227,5.06873323 L72.3395659,5.06873323 C72.1573122,5.06873323 71.6084474,5.28128316 71.4514357,5.76021422 L71.1341068,7.12056154 C71.1225376,7.16925934 71.0759599,7.20255698 71.0239733,7.20255698" id="Fill-92" fill="#FFFFFF" sketch:type="MSShapeGroup"></path>
                    <path d="M51.0373623,19.5451596 L49.3930217,19.5451596 C48.882621,19.5451596 48.4761937,19.1286617 48.3574958,18.4839361 C48.3469783,18.4271914 48.3882972,18.3734989 48.4495993,18.3639259 C48.5116528,18.3542141 48.5693489,18.3923676 48.5795659,18.4489736 C48.6549917,18.8586733 48.9132721,19.3370494 49.3930217,19.3370494 L51.0373623,19.3370494 C51.483005,19.3370494 51.8458598,18.9501031 51.8491653,18.4731144 L49.59601,2.42725921 L49.5951085,2.41394015 C49.5951085,1.93389918 49.2310518,1.54334561 48.7833055,1.54334561 L44.3576795,1.54334561 C44.2953255,1.54334561 44.2449917,1.49686765 44.2449917,1.43929048 C44.2449917,1.38185205 44.2953255,1.33523536 44.3576795,1.33523536 L48.7833055,1.33523536 C49.3530551,1.33523536 49.8168781,1.81541507 49.8204841,2.40700314 L52.0734891,18.4531358 L52.0745409,18.4664548 C52.0745409,19.0612339 51.6092154,19.5451596 51.0373623,19.5451596" id="Fill-93" fill="#FFFFFF" sketch:type="MSShapeGroup"></path>
                    <path id="Fill-94" fill="#FFFFFF" sketch:type="MSShapeGroup" d="M46.8339566,12.9515332 L42.1574124,12.9515332 C42.0950584,12.9515332 42.0447245,12.9049165 42.0447245,12.8474781 C42.0447245,12.789901 42.0950584,12.743423 42.1574124,12.743423 L46.8339566,12.743423 C46.8963105,12.743423 46.9466444,12.789901 46.9466444,12.8474781 C46.9466444,12.9049165 46.8963105,12.9515332 46.8339566,12.9515332"></path>
                    <path d="M47.6221703,10.4401975 C47.5646244,10.4401975 47.5156427,10.3998241 47.5100835,10.3459929 L47.0168114,5.52948932 L47.0165109,5.5114531 C47.0168114,5.50756837 47.0464107,5.08593701 46.7334391,4.7750203 C46.5013022,4.54415666 46.1378464,4.4271987 45.6534391,4.4271987 C45.5912354,4.4271987 45.5407513,4.380582 45.5407513,4.32314358 C45.5407513,4.26556641 45.5912354,4.21908845 45.6534391,4.21908845 C46.2045576,4.21908845 46.624207,4.35921602 46.900818,4.63558643 C47.2555593,4.98992881 47.2460935,5.44347042 47.2418865,5.51797389 L47.7344073,10.3264306 C47.7402671,10.3835915 47.6947412,10.4343704 47.6328381,10.4397813 L47.6221703,10.4401975" id="Fill-95" fill="#FFFFFF" sketch:type="MSShapeGroup"></path>
                    <path d="M46.8916528,12.9418214 C46.8292988,12.9418214 46.7789649,12.8953435 46.7789649,12.8377663 C46.7789649,12.7803279 46.8292988,12.7337112 46.8916528,12.7337112 C47.3264775,12.7337112 47.6804674,12.4069781 47.6804674,12.0053253 L47.5100835,10.3459929 C47.5042237,10.2886932 47.5497496,10.2380531 47.6116528,10.2326422 C47.6729549,10.2258439 47.7285476,10.2692696 47.7344073,10.3264306 L47.9052421,11.9956135 C47.9058431,12.5217162 47.4508848,12.9418214 46.8916528,12.9418214" id="Fill-96" fill="#FFFFFF" sketch:type="MSShapeGroup"></path>
                    <path d="M48.5109015,18.7483749 C48.4566611,18.7483749 48.4088815,18.7121637 48.3998664,18.661246 L48.0174791,16.5195141 C47.9325876,16.1515752 47.5841569,15.9487371 47.063389,15.9655246 L42.1578631,15.9855032 L42.1574124,15.9855032 C42.0953589,15.9855032 42.0448748,15.939164 42.0447245,15.8818643 C42.044424,15.8244259 42.0946077,15.7775317 42.1569616,15.7773929 L47.0588815,15.7575531 C47.686778,15.7361871 48.1297162,16.0067304 48.2389482,16.4809443 L48.6222371,18.6273934 C48.6323038,18.6839994 48.5908347,18.7375531 48.5293823,18.7469875 L48.5109015,18.7483749" id="Fill-97" fill="#FFFFFF" sketch:type="MSShapeGroup"></path>
                    <path d="M29.2148414,19.5451596 L27.3451252,19.5451596 C26.7731219,19.5451596 26.3077963,19.0612339 26.3077963,18.4664548 L26.3077963,2.41394015 C26.3077963,1.81916106 26.7731219,1.33523536 27.3451252,1.33523536 L29.2148414,1.33523536 C29.7866945,1.33523536 30.25202,1.81916106 30.25202,2.41394015 L30.25202,8.37449516 C30.25202,8.43193359 30.2015359,8.47855029 30.1393322,8.47855029 C30.0769783,8.47855029 30.0266444,8.43193359 30.0266444,8.37449516 L30.0266444,2.41394015 C30.0266444,1.93389918 29.6624374,1.54334561 29.2148414,1.54334561 L27.3451252,1.54334561 C26.897379,1.54334561 26.533172,1.93389918 26.533172,2.41394015 L26.533172,18.4664548 C26.533172,18.9464958 26.897379,19.3370494 27.3451252,19.3370494 L29.2148414,19.3370494 C29.6624374,19.3370494 30.0266444,18.9464958 30.0266444,18.4664548 L30.0266444,11.5103004 C30.0266444,11.4527232 30.0769783,11.4062453 30.1393322,11.4062453 C30.2015359,11.4062453 30.25202,11.4527232 30.25202,11.5103004 L30.25202,18.4664548 C30.25202,19.0612339 29.7866945,19.5451596 29.2148414,19.5451596" id="Fill-98" fill="#FFFFFF" sketch:type="MSShapeGroup"></path>
                    <path d="M19.0158431,19.5451596 L17.1459766,19.5451596 C16.5741235,19.5451596 16.1089482,19.0612339 16.1089482,18.4664548 L16.1089482,8.96774812 C16.1089482,8.91030969 16.1592821,8.86369299 16.2216361,8.86369299 C16.2838397,8.86369299 16.3343239,8.91030969 16.3343239,8.96774812 L16.3343239,18.4664548 C16.3343239,18.9464958 16.6983806,19.3370494 17.1459766,19.3370494 L19.0158431,19.3370494 C19.4634391,19.3370494 19.8276461,18.9464958 19.8276461,18.4664548 L19.8276461,2.41394015 C19.8276461,1.93389918 19.4634391,1.54334561 19.0158431,1.54334561 L13.0889149,1.54334561 C12.6788815,1.54334561 12.5386978,1.74604499 12.2729048,2.44238188 L11.3729048,6.27022307 L11.3626878,6.29644496 C11.1754758,6.62747899 10.9591152,6.79535459 10.7199165,6.79535459 C10.3220534,6.79535459 10.0469449,6.31670102 10.0353756,6.29644496 L10.0251586,6.27022307 L9.1251586,2.44238188 C8.85936561,1.74604499 8.71918197,1.54334561 8.30929883,1.54334561 L2.38222037,1.54334561 C1.93462437,1.54334561 1.57041736,1.93389918 1.57041736,2.41394015 L1.57041736,18.4664548 C1.57041736,18.9464958 1.93462437,19.3370494 2.38222037,19.3370494 L4.25208681,19.3370494 C4.6996828,19.3370494 5.06388982,18.9464958 5.06388982,18.4664548 L5.06388982,5.8458169 C5.06388982,5.78837847 5.11422371,5.74176177 5.17657763,5.74176177 C5.2387813,5.74176177 5.28926544,5.78837847 5.28926544,5.8458169 L5.28926544,18.4664548 C5.28926544,19.0612339 4.8239399,19.5451596 4.25208681,19.5451596 L2.38222037,19.5451596 C1.81036728,19.5451596 1.34504174,19.0612339 1.34504174,18.4664548 L1.34504174,2.41394015 C1.34504174,1.81916106 1.81036728,1.33523536 2.38222037,1.33523536 L8.30929883,1.33523536 C8.91135225,1.33523536 9.09315526,1.73189349 9.34001669,2.37939385 L9.34392321,2.39188046 L10.2421202,6.21181346 C10.3109349,6.32682905 10.5106177,6.58724435 10.7199165,6.58724435 L10.720217,6.58724435 C10.9009683,6.58696687 11.0557262,6.3860711 11.155793,6.21222968 L12.0541402,2.39188046 L12.0580467,2.37939385 C12.3049082,1.73189349 12.4867112,1.33523536 13.0889149,1.33523536 L19.0158431,1.33523536 C19.5876962,1.33523536 20.0530217,1.81916106 20.0530217,2.41394015 L20.0530217,18.4664548 C20.0530217,19.0612339 19.5876962,19.5451596 19.0158431,19.5451596" id="Fill-99" fill="#FFFFFF" sketch:type="MSShapeGroup"></path>
                    <path d="M11.9581302,11.2852638 L9.47899833,11.2852638 C8.90098497,11.2852638 8.55736227,10.7389051 8.46751252,10.3716599 L7.79063439,7.11820296 L7.47135225,5.75188981 C7.31674457,5.28128316 6.76772955,5.06873323 6.58547579,5.06873323 L6.04156928,5.06873323 C5.62672788,5.06873323 5.28926544,5.38048238 5.28926544,5.76354398 L5.28926544,6.57836497 C5.28926544,6.63594214 5.2387813,6.6824201 5.17657763,6.6824201 C5.11422371,6.6824201 5.06388982,6.63594214 5.06388982,6.57836497 L5.06388982,5.76354398 C5.06388982,5.26574426 5.50232053,4.86062298 6.04156928,4.86062298 L6.58547579,4.86062298 C6.88297162,4.86062298 7.5060601,5.14115559 7.68936561,5.69986224 L8.0115025,7.07658091 L8.68808013,10.3290666 C8.76125209,10.6277742 9.03320534,11.0770149 9.47899833,11.0770149 L11.9581302,11.0770149 C12.3254925,11.0770149 12.5923372,10.8222879 12.7514524,10.3194936 L13.4251753,7.07893949 C13.4370451,7.02261099 13.496394,6.98612232 13.5570952,6.9963891 C13.6182471,7.00721083 13.6582137,7.06173571 13.6464942,7.11820296 L12.9703673,10.3683301 C12.7772955,10.9798967 12.4375793,11.2852638 11.9581302,11.2852638" id="Fill-100" fill="#FFFFFF" sketch:type="MSShapeGroup"></path>
                    <path d="M13.5359098,7.20255698 L13.51202,7.20033714 C13.4511686,7.188128 13.4125543,7.13277068 13.425626,7.07658091 L13.7455092,5.70804791 C13.9310684,5.14115559 14.5543072,4.86062298 14.8516528,4.86062298 L15.3955593,4.86062298 C15.9346578,4.86062298 16.3732387,5.26574426 16.3732387,5.76354398 C16.3732387,5.82098241 16.3229048,5.8675991 16.2605509,5.8675991 C16.1983472,5.8675991 16.1478631,5.82098241 16.1478631,5.76354398 C16.1478631,5.38048238 15.8104007,5.06873323 15.3955593,5.06873323 L14.8516528,5.06873323 C14.669399,5.06873323 14.120384,5.28128316 13.9635225,5.76021422 L13.6460434,7.12056154 C13.6346244,7.16925934 13.5878965,7.20255698 13.5359098,7.20255698" id="Fill-101" fill="#FFFFFF" sketch:type="MSShapeGroup"></path>
                    <path d="M49.1440568,0.420937664 L50.5819533,0.420937664 C50.8145409,0.420937664 51.0073122,0.582153737 51.0304508,0.795813593 L51.031803,0.806912806 L53.6679466,19.9466737 C53.6792154,20.0634929 53.6386477,20.175595 53.5531553,20.2627238 C53.466611,20.3511013 53.3479132,20.3997991 53.2188481,20.3997991 L48.2695993,20.3997991 C48.0370117,20.3997991 47.8442404,20.238583 47.8211018,20.0249231 L47.6430551,18.3812684 C47.6200668,18.1685797 47.4262437,18.0065312 47.1945576,18.0065312 L42.0785309,18.0065312 C41.8468447,18.0065312 41.6530217,18.1685797 41.6300334,18.3812684 L41.4519866,20.0249231 C41.4288481,20.238583 41.2359265,20.3997991 41.0034891,20.3997991 L36.0540902,20.3997991 C35.9251753,20.3997991 35.8064775,20.3511013 35.7199332,20.2627238 C35.6344407,20.175595 35.5937229,20.0634929 35.6051419,19.9466737 L38.2412855,0.806912806 L38.2426377,0.795813593 C38.2657763,0.582153737 38.4585476,0.420937664 38.6911352,0.420937664 L49.1440568,0.420937664 L49.1440568,0.420937664 Z M42.8335392,11.8671401 L46.4395492,11.8671401 C46.5668114,11.8671401 46.6883639,11.8174711 46.7737062,11.7302036 C46.8591987,11.6430747 46.900818,11.526533 46.8880467,11.4094363 L46.3246077,6.20668007 C46.3016194,5.99385266 46.1076461,5.83180414 45.8761102,5.83180414 L43.3969783,5.83180414 C43.1652922,5.83180414 42.9714691,5.99385266 42.9484808,6.20668007 L42.3850417,11.4094363 C42.3722705,11.526533 42.4138898,11.6430747 42.4992321,11.7302036 C42.5847245,11.8174711 42.7061269,11.8671401 42.8335392,11.8671401 L42.8335392,11.8671401 Z M49.1440568,0.00471716565 L38.6911352,0.00471716565 C38.2279132,0.00471716565 37.8401169,0.328814194 37.7941402,0.754330283 L35.1570952,19.9006119 C35.1040568,20.3907809 35.5208514,20.8160196 36.0540902,20.8160196 L41.0034891,20.8160196 C41.4665609,20.8160196 41.8543573,20.4919225 41.9004841,20.0662677 L42.0785309,18.4227517 L47.1945576,18.4227517 L47.3726043,20.0662677 C47.418581,20.4919225 47.8063773,20.8160196 48.2695993,20.8160196 L53.2188481,20.8160196 C53.7522371,20.8160196 54.1690317,20.3907809 54.1159933,19.9006119 L51.4789482,0.754330283 C51.4329716,0.328814194 51.045025,0.00471716565 50.5819533,0.00471716565 L49.1440568,0.00471716565 L49.1440568,0.00471716565 Z M42.8335392,11.4509196 L43.3969783,6.24802464 L45.8761102,6.24802464 L46.4395492,11.4509196 L42.8335392,11.4509196 L42.8335392,11.4509196 Z" id="Fill-102" fill="#503254" sketch:type="MSShapeGroup"></path>
                    <path d="M88.2470284,0.420937664 C88.4956928,0.420937664 88.6977796,0.607681927 88.6977796,0.837158162 L88.6977796,19.9835786 C88.6977796,20.2130548 88.4956928,20.3997991 88.2470284,20.3997991 L83.2887646,20.3997991 C83.0402504,20.3997991 82.8380134,20.2130548 82.8380134,19.9835786 L82.8380134,0.837158162 C82.8380134,0.607681927 83.0402504,0.420937664 83.2887646,0.420937664 L88.2470284,0.420937664 M88.2470284,0.00471716565 L83.2887646,0.00471716565 C82.7908347,0.00471716565 82.3872621,0.377511992 82.3872621,0.837158162 L82.3872621,19.9835786 C82.3872621,20.4432247 82.7908347,20.8160196 83.2887646,20.8160196 L88.2470284,20.8160196 C88.7449583,20.8160196 89.1485309,20.4432247 89.1485309,19.9835786 L89.1485309,0.837158162 C89.1485309,0.377511992 88.7449583,0.00471716565 88.2470284,0.00471716565" id="Fill-103" fill="#503254" sketch:type="MSShapeGroup"></path>
                    <path d="M78.0480301,0.420937664 C78.2965442,0.420937664 78.4987813,0.607681927 78.4987813,0.837158162 L78.4987813,19.9835786 C78.4987813,20.2130548 78.2965442,20.3997991 78.0480301,20.3997991 L73.0897663,20.3997991 C72.8412521,20.3997991 72.639015,20.2130548 72.639015,19.9835786 L72.639015,6.24802464 C72.639015,6.03158998 72.4591653,5.85108902 72.2253756,5.83333028 L72.187813,5.83180414 C71.9694992,5.83180414 71.7800334,5.97762006 71.7435225,6.17962574 L70.7422538,11.7274288 C70.7058932,11.9290182 70.5188314,12.0752504 70.2976628,12.0752504 L66.1905676,12.0752504 C65.9692487,12.0752504 65.7823372,11.9290182 65.7459766,11.7274288 L64.7447078,6.17962574 C64.708197,5.97762006 64.5187312,5.83180414 64.3004174,5.83180414 L64.2628548,5.83333028 C64.0290651,5.85122776 63.8492154,6.03158998 63.8492154,6.24816338 L63.8492154,19.9835786 C63.8492154,20.2130548 63.6469783,20.3997991 63.3984641,20.3997991 L58.4402003,20.3997991 C58.1916861,20.3997991 57.9894491,20.2130548 57.9894491,19.9835786 L57.9894491,0.837158162 C57.9894491,0.607681927 58.1916861,0.420937664 58.4402003,0.420937664 L66.9168781,0.420937664 C67.138197,0.420937664 67.3252588,0.567169799 67.3616194,0.76875926 L67.7994491,3.19490854 C67.8356594,3.39552682 68.023773,3.54273014 68.2440401,3.54273014 C68.4644574,3.5425914 68.652571,3.39552682 68.6887813,3.19490854 L69.126611,0.76875926 C69.1629716,0.567308539 69.3500334,0.420937664 69.571202,0.420937664 L78.0480301,0.420937664 M78.0480301,0.00471716565 L69.571202,0.00471716565 C69.1305175,0.00471716565 68.7544407,0.298985058 68.68202,0.700360358 L68.2440401,3.12650964 L67.8062104,0.700360358 C67.7337896,0.298985058 67.3575626,0.00471716565 66.9168781,0.00471716565 L58.4402003,0.00471716565 C57.9422705,0.00471716565 57.5386978,0.377511992 57.5386978,0.837158162 L57.5386978,19.9835786 C57.5386978,20.4432247 57.9422705,20.8160196 58.4402003,20.8160196 L63.3984641,20.8160196 C63.896394,20.8160196 64.2999666,20.4432247 64.2999666,19.9835786 L64.2999666,6.24816338 L65.3013856,11.7958277 C65.3738063,12.197203 65.7498831,12.4914709 66.1905676,12.4914709 L70.2976628,12.4914709 C70.7383472,12.4914709 71.114424,12.197203 71.1868447,11.7958277 L72.1882638,6.24802464 L72.1882638,19.9835786 C72.1882638,20.4432247 72.5918364,20.8160196 73.0897663,20.8160196 L78.0480301,20.8160196 C78.5459599,20.8160196 78.9495326,20.4432247 78.9495326,19.9835786 L78.9495326,0.837158162 C78.9495326,0.377511992 78.5459599,0.00471716565 78.0480301,0.00471716565" id="Fill-104" fill="#503254" sketch:type="MSShapeGroup"></path>
                    <path d="M30.7591152,0.420937664 C31.0076294,0.420937664 31.2098664,0.607681927 31.2098664,0.837158162 L31.2098664,19.9835786 C31.2098664,20.2130548 31.0076294,20.3997991 30.7591152,20.3997991 L25.8008514,20.3997991 C25.5523372,20.3997991 25.3501002,20.2130548 25.3501002,19.9835786 L25.3501002,0.837158162 C25.3501002,0.607681927 25.5523372,0.420937664 25.8008514,0.420937664 L30.7591152,0.420937664 M30.7591152,0.00471716565 L25.8008514,0.00471716565 C25.3029215,0.00471716565 24.8993489,0.377511992 24.8993489,0.837158162 L24.8993489,19.9835786 C24.8993489,20.4432247 25.3029215,20.8160196 25.8008514,20.8160196 L30.7591152,20.8160196 C31.2570451,20.8160196 31.6606177,20.4432247 31.6606177,19.9835786 L31.6606177,0.837158162 C31.6606177,0.377511992 31.2570451,0.00471716565 30.7591152,0.00471716565" id="Fill-105" fill="#503254" sketch:type="MSShapeGroup"></path>
                    <path d="M20.5599666,0.420937664 C20.8086311,0.420937664 21.0107179,0.607681927 21.0107179,0.837158162 L21.0107179,19.9835786 C21.0107179,20.2130548 20.8086311,20.3997991 20.5599666,20.3997991 L15.6017028,20.3997991 C15.3531886,20.3997991 15.1509516,20.2130548 15.1509516,19.9835786 L15.1509516,6.24802464 C15.1509516,6.03158998 14.9711018,5.85108902 14.7374624,5.83333028 L14.6998998,5.83180414 C14.481586,5.83180414 14.2919699,5.97762006 14.2556093,6.17962574 L13.2543406,11.7274288 C13.2178297,11.9290182 13.0309182,12.0752504 12.8095993,12.0752504 L8.70265442,12.0752504 C8.48133556,12.0752504 8.29427379,11.9290182 8.25791319,11.7274288 L7.25664441,6.17962574 C7.22013356,5.97762006 7.03066778,5.83180414 6.81235392,5.83180414 L6.77479132,5.83333028 C6.54100167,5.85122776 6.36130217,6.03158998 6.36130217,6.24816338 L6.36130217,19.9835786 C6.36130217,20.2130548 6.15906511,20.3997991 5.91040067,20.3997991 L0.952136895,20.3997991 C0.703622705,20.3997991 0.501385643,20.2130548 0.501385643,19.9835786 L0.501385643,0.837158162 C0.501385643,0.607681927 0.703622705,0.420937664 0.952136895,0.420937664 L9.42896494,0.420937664 C9.65028381,0.420937664 9.83719533,0.567308539 9.87355593,0.76875926 L10.3113856,3.19490854 C10.3477462,3.39552682 10.5357095,3.5425914 10.7561269,3.54273014 C10.976394,3.54273014 11.1645075,3.39552682 11.2007179,3.19490854 L11.6386978,0.76875926 C11.6750584,0.567169799 11.8619699,0.420937664 12.0832888,0.420937664 L20.5599666,0.420937664 M20.5599666,0.00471716565 L12.0832888,0.00471716565 C11.6426043,0.00471716565 11.2663773,0.298985058 11.1939566,0.700360358 L10.7561269,3.12650964 L10.3181469,0.700360358 C10.2457262,0.298985058 9.86964942,0.00471716565 9.42896494,0.00471716565 L0.952136895,0.00471716565 C0.454357262,0.00471716565 0.0506343907,0.377511992 0.0506343907,0.837158162 L0.0506343907,19.9835786 C0.0506343907,20.4432247 0.454357262,20.8160196 0.952136895,20.8160196 L5.91040067,20.8160196 C6.40833055,20.8160196 6.81205342,20.4432247 6.81205342,19.9835786 L6.81205342,6.24816338 L7.8133222,11.7958277 C7.8857429,12.197203 8.26196995,12.4914709 8.70265442,12.4914709 L12.8095993,12.4914709 C13.2502838,12.4914709 13.6263606,12.197203 13.6989316,11.7958277 L14.7002003,6.24802464 L14.7002003,19.9835786 C14.7002003,20.4432247 15.1039232,20.8160196 15.6017028,20.8160196 L20.5599666,20.8160196 C21.0578965,20.8160196 21.4614691,20.4432247 21.4614691,19.9835786 L21.4614691,0.837158162 C21.4614691,0.377511992 21.0578965,0.00471716565 20.5599666,0.00471716565" id="Fill-106" fill="#503254" sketch:type="MSShapeGroup"></path>
                    <path d="M86.7029048,19.8052974 L84.8330384,19.8052974 C84.1058264,19.8052974 83.5141402,19.2046913 83.5141402,18.4664548 L83.5141402,2.41394015 C83.5141402,1.67570373 84.1058264,1.07509755 84.8330384,1.07509755 L86.7029048,1.07509755 C87.4301169,1.07509755 88.0216528,1.67570373 88.0216528,2.41394015 L88.0216528,8.37449516 C88.0216528,8.57552967 87.8451085,8.7386881 87.6272454,8.7386881 C87.4095326,8.7386881 87.2328381,8.57552967 87.2328381,8.37449516 L87.2328381,2.41394015 C87.2328381,2.07735651 86.9951419,1.80348342 86.7029048,1.80348342 L84.8330384,1.80348342 C84.5408013,1.80348342 84.3029549,2.07735651 84.3029549,2.41394015 L84.3029549,18.4664548 C84.3029549,18.8030385 84.5408013,19.0769116 84.8330384,19.0769116 L86.7029048,19.0769116 C86.9951419,19.0769116 87.2328381,18.8030385 87.2328381,18.4664548 L87.2328381,11.5103004 C87.2328381,11.3091272 87.4095326,11.1461075 87.6272454,11.1461075 C87.8451085,11.1461075 88.0216528,11.3091272 88.0216528,11.5103004 L88.0216528,18.4664548 C88.0216528,19.2046913 87.4301169,19.8052974 86.7029048,19.8052974" id="Fill-107" fill="#A85AA6" sketch:type="MSShapeGroup"></path>
                    <path d="M86.7029048,19.5451596 L84.8330384,19.5451596 C84.2611853,19.5451596 83.7958598,19.0612339 83.7958598,18.4664548 L83.7958598,2.41394015 C83.7958598,1.81916106 84.2611853,1.33523536 84.8330384,1.33523536 L86.7029048,1.33523536 C87.2747579,1.33523536 87.7399332,1.81916106 87.7399332,2.41394015 L87.7399332,8.37449516 C87.7399332,8.43193359 87.6895993,8.47855029 87.6272454,8.47855029 C87.5650417,8.47855029 87.5145576,8.43193359 87.5145576,8.37449516 L87.5145576,2.41394015 C87.5145576,1.93389918 87.1505008,1.54334561 86.7029048,1.54334561 L84.8330384,1.54334561 C84.3854424,1.54334561 84.0212354,1.93389918 84.0212354,2.41394015 L84.0212354,18.4664548 C84.0212354,18.9464958 84.3854424,19.3370494 84.8330384,19.3370494 L86.7029048,19.3370494 C87.1505008,19.3370494 87.5145576,18.9464958 87.5145576,18.4664548 L87.5145576,11.5103004 C87.5145576,11.4527232 87.5650417,11.4062453 87.6272454,11.4062453 C87.6895993,11.4062453 87.7399332,11.4527232 87.7399332,11.5103004 L87.7399332,18.4664548 C87.7399332,19.0612339 87.2747579,19.5451596 86.7029048,19.5451596" id="Fill-108" fill="#FFFFFF" sketch:type="MSShapeGroup"></path>
                </g>
            </g>
        </g>
    </g>
</svg>